<?xml version="1.0" standalone="no"?><!DOCTYPE svg PUBLIC "-//W3C//DTD SVG 1.1//EN" "http://www.w3.org/Graphics/SVG/1.1/DTD/svg11.dtd"><svg t="1609571863181" viewBox="0 0 1024 1024" version="1.1" xmlns="http://www.w3.org/2000/svg" xmlns:xlink="http://www.w3.org/1999/xlink" width="200" height="200"><defs><style type="text/css"></style></defs><path d="M529.066667 42.666667C264.533333 29.866667 42.666667 247.466667 42.666667 516.266667c0 341.333333 362.666667 567.466667 669.866666 422.4 12.8-8.533333 29.866667-12.8 42.666667-25.6 21.333333-17.066667 25.6-42.666667 12.8-59.733334-12.8-21.333333-34.133333-25.6-55.466667-17.066666-12.8 4.266667-21.333333 12.8-34.133333 17.066666-145.066667 64-285.866667 51.2-405.333333-46.933333-123.733333-102.4-166.4-238.933333-123.733334-396.8 51.2-192 247.466667-311.466667 439.466667-268.8 200.533333 42.666667 332.8 230.4 298.666667 430.933333-8.533333 46.933333-29.866667 89.6-46.933334 136.533334-12.8 29.866667-8.533333 51.2 17.066667 64 21.333333 12.8 42.666667 4.266667 64-21.333334 4.266667-4.266667 8.533333-12.8 8.533333-17.066666 29.866667-51.2 46.933333-110.933333 51.2-166.4 25.6-277.333333-179.2-512-452.266666-524.8z" fill="#3D24F6"></path><path d="M567.466667 494.933333c8.533333-46.933333-12.8-72.533333-64-59.733333-8.533333 4.266667-21.333333 4.266667-29.866667 8.533333-34.133333 12.8-42.666667 38.4-21.333333 68.266667 12.8 21.333333 12.8 38.4 4.266666 59.733333-12.8 42.666667-21.333333 81.066667-34.133333 123.733334-8.533333 38.4 12.8 59.733333 46.933333 59.733333 4.266667 0 12.8 0 17.066667-4.266667 59.733333-12.8 68.266667-34.133333 42.666667-85.333333-4.266667-8.533333-4.266667-25.6 0-34.133333 12.8-46.933333 29.866667-93.866667 38.4-136.533334zM601.6 311.466667c0-25.6-25.6-55.466667-55.466667-51.2-29.866667 0-51.2 25.6-51.2 55.466666 4.266667 25.6 25.6 46.933333 51.2 46.933334 34.133333 0 55.466667-21.333333 55.466667-51.2z" fill="#b006e0"></path></svg>