<?xml version="1.0"?>
<svg xmlns="http://www.w3.org/2000/svg" xmlns:xlink="http://www.w3.org/1999/xlink" xmlns:svgjs="http://svgjs.com/svgjs"
     version="1.1" width="512" height="512" x="0" y="0" viewBox="0 0 512 512" style="enable-background:new 0 0 512 512"
     xml:space="preserve" ><g><g xmlns="http://www.w3.org/2000/svg"><g><circle cx="256" cy="256" fill="#b03dff" r="248.507"  style="" /></g><g><path d="m504.503 256c0 137.249-111.254 248.503-248.503 248.503-62.65 0-119.886-23.178-163.594-61.441 41.041 29.931 91.603 47.595 146.29 47.595 137.239 0 248.503-111.254 248.503-248.503 0-74.589-32.869-141.505-84.909-187.062 61.951 45.187 102.213 118.347 102.213 200.908z" fill="#6800ff"  style="" /></g><g><circle cx="256" cy="256" fill="#fef0ae" r="172.182"  style="" /></g><g><path d="m428.186 256c0 95.089-77.097 172.186-172.186 172.186-27.164 0-52.859-6.294-75.708-17.494 17.773 6.204 36.865 9.571 56.756 9.571 95.089 0 172.176-77.086 172.176-172.186 0-67.965-39.383-126.739-96.578-154.723 67.266 23.429 115.54 87.398 115.54 162.646z" fill="#fee45a"  style="" /></g><g><path d="m437.02 74.981c-48.353-48.353-112.64-74.981-181.02-74.981s-132.667 26.628-181.019 74.981c-48.353 48.352-74.981 112.639-74.981 181.019 0 40.51 9.189 79.261 27.313 115.178 1.864 3.695 6.371 5.18 10.065 3.314 3.694-1.864 5.178-6.37 3.314-10.065-17.058-33.804-25.706-70.284-25.706-108.427 0-64.378 25.07-124.901 70.591-170.423 45.522-45.521 106.045-70.591 170.423-70.591 64.377 0 124.901 25.07 170.423 70.591 45.521 45.521 70.591 106.045 70.591 170.423s-25.07 124.901-70.591 170.423c-45.522 45.521-106.046 70.591-170.423 70.591-78.954 0-153.015-38.772-198.11-103.715-2.36-3.399-7.028-4.241-10.429-1.881-3.399 2.361-4.241 7.029-1.881 10.428 47.896 68.975 126.557 110.154 210.42 110.154 68.38 0 132.667-26.628 181.02-74.981 48.351-48.352 74.98-112.639 74.98-181.019s-26.629-132.667-74.98-181.019z" fill="#000000"  style="" />
    <path d="m362.405 120.416c2.414-3.362 1.646-8.043-1.716-10.457-30.642-22.003-66.844-33.634-104.689-33.634-99.073 0-179.675 80.602-179.675 179.675s80.602 179.675 179.675 179.675 179.674-80.602 179.674-179.675c0-45.349-16.942-88.651-47.704-121.931-2.81-3.039-7.55-3.226-10.589-.416-3.039 2.809-3.225 7.549-.417 10.588 28.196 30.503 43.724 70.193 43.724 111.759 0 90.81-73.879 164.689-164.689 164.689s-164.688-73.879-164.688-164.689 73.879-164.689 164.689-164.689c34.69 0 67.869 10.658 95.949 30.821 3.359 2.412 8.042 1.646 10.456-1.716z"
          fill="#000000"  style="" />
    <path d="m209.019 234.128v-19.508c0-4.138-3.355-7.493-7.493-7.493s-7.493 3.355-7.493 7.493v19.509c0 4.138 3.355 7.493 7.493 7.493s7.493-3.356 7.493-7.494z"
          fill="#000000"  style="" />
    <path d="m317.966 234.128v-19.508c0-4.138-3.354-7.493-7.493-7.493s-7.493 3.355-7.493 7.493v19.509c0 4.138 3.354 7.493 7.493 7.493s7.493-3.356 7.493-7.494z"
          fill="#000000"  style="" />
    <path d="m173.206 270.872c-3.811 1.612-5.594 6.009-3.982 9.82 14.779 34.941 48.841 57.518 86.776 57.518s71.997-22.577 86.776-57.518c1.613-3.811-.171-8.208-3.982-9.82s-8.208.171-9.82 3.982c-12.43 29.384-41.073 48.37-72.974 48.37s-60.545-18.986-72.973-48.37c-1.613-3.812-6.008-5.594-9.821-3.982z"
          fill="#000000"  style="" /></g></g></g></svg>
