<?xml version="1.0" encoding="iso-8859-1"?>
<!-- Generator: Adobe Illustrator 19.0.0, SVG Export Plug-In . SVG Version: 6.00 Build 0)  -->
<svg version="1.1"  xmlns="http://www.w3.org/2000/svg" xmlns:xlink="http://www.w3.org/1999/xlink" x="0px" y="0px"
	 viewBox="0 0 511.998 511.998" style="enable-background:new 0 0 511.998 511.998;" xml:space="preserve">
<path style="fill:#97A6AB;" d="M255.999,7.604c-31.348,0-56.761,25.412-56.761,56.761c0,31.348,25.412,56.761,56.761,56.761
	s56.761-25.412,56.761-56.761S287.347,7.604,255.999,7.604z M255.999,87.833c-12.961,0-23.469-10.508-23.469-23.469
	s10.508-23.469,23.469-23.469s23.469,10.508,23.469,23.469S268.961,87.833,255.999,87.833z"/>
<g>
	<path style="fill:#738184;" d="M262.588,86.888c2.092,0.611,4.301,0.945,6.589,0.945c12.961,0,23.469-10.508,23.469-23.469
		s-10.508-23.469-23.469-23.469c-2.288,0-4.499,0.334-6.589,0.945c9.752,2.849,16.879,11.851,16.879,22.524
		S272.341,84.04,262.588,86.888z"/>
	<path style="fill:#738184;" d="M212.417,64.364c0-29.118,21.93-53.1,50.171-56.368c-2.164-0.25-4.36-0.393-6.589-0.393
		c-31.348,0-56.761,25.412-56.761,56.761c0,31.348,25.412,56.761,56.761,56.761c2.231,0,4.427-0.143,6.589-0.393
		C234.347,117.465,212.417,93.482,212.417,64.364z"/>
</g>
<path style="fill:#97A6AB;" d="M429.492,394.736l-16.11-16.11c0,0-28.5,60.812-108.504,88.804
	c-20.014,6.975-39.956,20.602-48.848,36.965c-8.881-16.364-28.905-29.99-48.929-36.965
	c-79.913-27.993-108.494-88.804-108.494-88.804l-16.11,16.11c-33.234-62.302,13.535-122.536,13.535-122.536
	c0,70.616,58.155,83.076,58.155,83.076l-29.078,7.229c5.485,14.042,15.532,25.833,27.334,35.556
	c31.237,25.833,78.585,2.91,78.585-37.635V188.638h50.014v171.789c0,40.544,47.347,63.468,78.585,37.635
	c10.22-8.395,19.111-18.442,24.84-29.99c0.912-1.825,1.744-3.66,2.494-5.485l-29.078-7.31c0,0,58.155-12.46,58.155-83.076
	C416.038,272.201,462.726,332.434,429.492,394.736z"/>
<path style="fill:#738184;" d="M247.635,195.259v234.202c0,5.997-5.423,10.522-11.325,9.459
	c-20.487-3.686-63.465-14.32-83.867-40.859c31.237,25.833,78.585,2.91,78.585-37.635V188.638h8.425L247.635,195.259z"/>
<path style="fill:#CC7D0A;" d="M343.87,132.927c-57.524-15.736-118.217-15.736-175.741,0c0,16.881,0,33.762,0,50.642
	c57.524,15.736,118.217,15.736,175.741,0C343.87,166.689,343.87,149.808,343.87,132.927z"/>
<path style="fill:#AD6405;" d="M168.129,162.28c0,7.097,0,14.193,0,21.29c57.524,15.736,118.217,15.736,175.741,0
	c0-7.097,0-14.193,0-21.29C286.346,178.017,225.652,178.017,168.129,162.28z"/>
<path style="fill:#738184;" d="M102.826,376.746l-4.219,1.88l-16.11,16.11c-33.234-62.302,13.535-122.536,13.535-122.536
	s-15.604,49.905,10.982,90.593C110.228,367.714,108.193,374.354,102.826,376.746z"/>
<path d="M255.999,95.437c17.133,0,31.073-13.94,31.073-31.073s-13.94-31.072-31.073-31.072s-31.072,13.939-31.072,31.072
	S238.866,95.437,255.999,95.437z M255.999,48.5c8.748,0,15.865,7.117,15.865,15.864c0,8.748-7.117,15.865-15.865,15.865
	s-15.864-7.117-15.864-15.865C240.134,55.616,247.252,48.5,255.999,48.5z"/>
<path d="M442.445,307.729c-7.838-23.818-19.895-39.529-20.404-40.185c-2.212-2.855-6.171-3.796-9.484-2.107
	c-2.576,1.314-4.125,4.071-4.13,6.963c-0.104,63.157-50.034,74.976-52.134,75.443c-3.774,0.809-6.395,4.34-5.965,8.285
	c0.353,3.223,2.85,5.807,5.994,6.597l19.748,4.965c-4.881,8.676-12.023,16.904-21.287,24.513
	c-12.188,10.08-28.096,12.037-42.555,5.232c-14.551-6.849-23.591-21.029-23.591-37.006V253.577c0-4.199-3.405-7.604-7.604-7.604l0,0
	c-4.199,0-7.604,3.405-7.604,7.604v106.851c0,21.93,12.385,41.383,32.322,50.766c19.627,9.238,42.13,6.452,58.704-7.255
	c11.976-9.838,21-20.766,26.815-32.466c0.951-1.902,1.844-3.862,2.657-5.83c0.518-1.252,0.759-2.62,0.589-3.964
	c-0.41-3.229-2.727-5.719-5.7-6.466l-7.336-1.844c3.329-2.006,6.818-4.409,10.304-7.272c11.314-9.294,24.319-25,29.522-50.118
	c2.38,4.925,4.789,10.646,6.844,16.97c7.937,24.427,7.61,47.504-0.947,68.751l-8.336-8.331c-1.005-1.004-2.242-1.774-3.622-2.111
	c-3.703-0.901-7.254,0.966-8.753,4.132c-0.069,0.146-7.084,14.774-23.402,32.475c-14.99,16.26-41.164,38.549-80.714,52.387
	c-18.918,6.59-35.731,17.877-46.35,30.736c-10.623-12.846-27.458-24.13-46.413-30.732c-75.704-26.516-103.856-84.294-104.125-84.861
	c-1.384-2.945-4.539-4.763-7.956-4.3c-1.693,0.229-3.238,1.092-4.447,2.299l-8.309,8.304c-8.553-21.245-8.866-44.319-0.908-68.745
	c2.066-6.342,4.489-12.075,6.88-17.01c5.198,25.14,18.21,40.855,29.529,50.153c3.462,2.844,6.927,5.233,10.235,7.231l-7.037,1.75
	c-1.304,0.324-2.544,0.92-3.525,1.837c-2.362,2.208-3.031,5.517-1.925,8.354c5.443,13.962,15.392,26.97,29.562,38.654
	c16.595,13.724,39.096,16.511,58.723,7.271c19.937-9.383,32.322-28.836,32.322-50.766V202.524
	c5.784,0.295,11.573,0.445,17.363,0.445c5.812,0,11.625-0.152,17.432-0.449v15.571c0,4.199,3.405,7.604,7.604,7.604l0,0
	c4.199,0,7.604-3.405,7.604-7.604v-16.696c19.271-1.853,38.418-5.343,57.221-10.485c3.31-0.905,5.614-3.906,5.614-7.338v-50.642
	c0-3.435-2.309-6.435-5.622-7.341c-16.821-4.601-33.918-7.878-51.131-9.846c16.236-12.268,26.504-32.036,25.587-54.108
	c-1.375-33.065-28.099-59.972-61.155-61.558c-36.918-1.771-67.517,27.752-67.517,64.289c0,20.966,10.08,39.617,25.644,51.377
	c-17.213,1.968-34.31,5.246-51.131,9.846c-3.313,0.906-5.622,3.905-5.622,7.341v50.642c0,3.432,2.303,6.433,5.614,7.338
	c18.825,5.149,37.996,8.641,57.289,10.492v159.027c0,15.977-9.04,30.157-23.591,37.006c-14.459,6.804-30.365,4.849-42.563-5.239
	c-9.336-7.698-16.479-15.928-21.325-24.55l19.775-4.918c3.15-0.784,5.655-3.367,6.012-6.593c0.436-3.947-2.187-7.483-5.964-8.293
	c-0.128-0.027-13.087-3.021-25.839-13.498c-17.398-14.293-26.245-35.123-26.295-61.914c-0.005-2.639-1.231-5.184-3.453-6.607
	c-3.432-2.197-7.79-1.335-10.157,1.713c-0.51,0.657-12.587,16.368-20.447,40.184c-10.508,31.839-8.399,63.094,6.096,90.401
	c0.773,1.456,1.946,2.699,3.425,3.426c3.017,1.481,6.508,0.818,8.761-1.434l9.023-9.018c11.588,18.739,43.699,61.092,107.714,83.514
	c19.883,6.927,37.416,20.001,44.702,33.33c1.038,1.898,2.812,3.339,4.916,3.844c3.444,0.826,6.877-0.785,8.493-3.757
	c7.269-13.379,24.803-26.495,44.678-33.419c64.059-22.413,96.135-64.756,107.711-83.505l8.869,8.864
	c1.169,1.169,2.652,2.018,4.285,2.276c3.319,0.525,6.452-1.125,7.947-3.93C450.79,370.964,452.948,339.64,442.445,307.729z
	 M206.842,64.364c0-27.105,22.052-49.156,49.156-49.156c27.106,0,49.157,22.052,49.157,49.156c0,27.106-22.052,49.157-49.157,49.157
	C228.894,113.521,206.842,91.469,206.842,64.364z M175.733,138.784c52.642-13.398,107.891-13.397,160.533,0v38.929
	c-52.642,13.397-107.891,13.397-160.533,0V138.784z"/>















</svg>
