<svg  enable-background="new 0 0 24 24" height="512" viewBox="0 0 24 24" width="512" xmlns="http://www.w3.org/2000/svg"><path d="m23.25 4.5v.75h-22.5v-.75c0-1.55 1.26-2.81 2.81-2.81h16.88c1.55 0 2.81 1.26 2.81 2.81z" fill="#607d8b"/><path d="m23.25 5.25v15.87c0 .62-.5 1.13-1.12 1.13h-20.26c-.62 0-1.12-.51-1.12-1.13v-15.87z" fill="#fff"/><path d="m10.975 16.55h-4.95c-.868 0-1.575-.707-1.575-1.575v-4.95c0-.868.707-1.575 1.575-1.575h4.95c.868 0 1.575.707 1.575 1.575v4.95c0 .868-.707 1.575-1.575 1.575z" fill="#90caf9"/><path d="m10.975 16.701h-4.95c-.868 0-1.575-.652-1.575-1.452v-.705c0-.165.071-.323.198-.44l1.386-1.278c.615-.567 1.617-.567 2.232 0 .049.046.192.149.338-.015l.467-.539c.594-.698 1.862-.702 2.463.004l.868.999c.096.111.149.248.149.389v1.585c-.001.801-.708 1.452-1.576 1.452z" fill="#8bc34a"/><path d="m19.25 20h-14.5c-.414 0-.75-.336-.75-.75s.336-.75.75-.75h14.5c.414 0 .75.336.75.75s-.336.75-.75.75z"/><path d="m19.25 10h-3.5c-.414 0-.75-.336-.75-.75s.336-.75.75-.75h3.5c.414 0 .75.336.75.75s-.336.75-.75.75z"/><path d="m19.25 13h-3.5c-.414 0-.75-.336-.75-.75s.336-.75.75-.75h3.5c.414 0 .75.336.75.75s-.336.75-.75.75z"/><path d="m19.25 16h-3.5c-.414 0-.75-.336-.75-.75s.336-.75.75-.75h3.5c.414 0 .75.336.75.75s-.336.75-.75.75z"/><path d="m4.75 15.15c-.192 0-.384-.073-.53-.22-.293-.293-.293-.768 0-1.061l1.54-1.54c.684-.684 1.797-.684 2.48 0 .056.055.213.179.375-.019l.519-.649c.66-.841 2.068-.846 2.736.005l.965 1.204c.26.323.207.795-.116 1.055-.32.259-.795.207-1.054-.116l-.97-1.21c-.141-.179-.255-.173-.386-.006l-.523.655c-.623.779-1.901.846-2.606.142-.127-.126-.232-.126-.359 0l-1.54 1.54c-.147.147-.339.22-.531.22z"/><path d="m11.25 17h-5.5c-.965 0-1.75-.785-1.75-1.75v-5.5c0-.965.785-1.75 1.75-1.75h5.5c.965 0 1.75.785 1.75 1.75v5.5c0 .965-.785 1.75-1.75 1.75zm-5.5-7.5c-.138 0-.25.112-.25.25v5.5c0 .138.112.25.25.25h5.5c.138 0 .25-.112.25-.25v-5.5c0-.138-.112-.25-.25-.25z"/><path d="m21.25 23h-18.5c-1.517 0-2.75-1.233-2.75-2.75v-16.5c0-1.517 1.233-2.75 2.75-2.75h18.5c1.517 0 2.75 1.233 2.75 2.75v16.5c0 1.517-1.233 2.75-2.75 2.75zm-18.5-20.5c-.689 0-1.25.561-1.25 1.25v16.5c0 .689.561 1.25 1.25 1.25h18.5c.689 0 1.25-.561 1.25-1.25v-16.5c0-.689-.561-1.25-1.25-1.25z"/><path d="m23.25 6h-22.5c-.414 0-.75-.336-.75-.75s.336-.75.75-.75h22.5c.414 0 .75.336.75.75s-.336.75-.75.75z"/></svg>