<?xml version="1.0" encoding="iso-8859-1"?>
<!-- Generator: Adobe Illustrator 19.0.0, SVG Export Plug-In . SVG Version: 6.00 Build 0)  -->
<svg version="1.1"  xmlns="http://www.w3.org/2000/svg" xmlns:xlink="http://www.w3.org/1999/xlink" x="0px" y="0px"
	 viewBox="0 0 512.001 512.001" style="enable-background:new 0 0 512.001 512.001;" xml:space="preserve">
<path style="fill:#F2E2D3;" d="M141.319,167.96l-7.311,8.64l198.1,198.101l8.61-6.988l156.248-128.839
	c5.181-4.272,5.558-12.087,0.814-16.84L286.741,10.621c-4.745-4.753-12.545-4.375-16.81,0.815L141.319,167.96z"/>
<path style="fill:#D8C4B4;" d="M320.251,347.209l-8.553,7.082l20.41,20.41l8.61-6.988l156.248-128.839
	c0.648-0.534,1.22-1.123,1.717-1.755c0.745-0.948,1.32-1.991,1.723-3.086c0.268-0.73,0.46-1.483,0.575-2.247
	c0.115-0.763,0.152-1.537,0.112-2.308c-0.061-1.156-0.297-2.307-0.71-3.408c-0.551-1.468-1.417-2.847-2.603-4.036l-0.062-0.062
	l-20.406-20.442c4.745,4.753,4.367,12.568-0.814,16.84L320.251,347.209z"/>
<path style="fill:#FFCC5A;" d="M129.233,183.504l-7.06,7.06c-14.07,15.725-21.012,36.674-19.017,57.821
	c1.66,17.591,9.392,34.052,21.864,46.546l25.188,25.233L24.152,434.419c-17.087,15.487-17.752,42.15-1.458,58.472
	c16.278,16.307,42.862,15.66,58.331-1.418l114.261-126.151l18.685,18.718c12.472,12.494,28.904,20.24,46.464,21.903
	c21.11,1.999,42.022-4.956,57.719-19.051l7.234-7.234L129.233,183.504z M53.295,478.135c-8.945,0-16.196-7.264-16.196-16.224
	s7.251-16.224,16.196-16.224s16.196,7.264,16.196,16.224S62.24,478.135,53.295,478.135z"/>
<path style="fill:#FFB000;" d="M305.218,359.489c-4.301,3.614-7.824,6.607-7.824,6.607c-14.916,7.164-27.56,6.196-36.959,5.306
	c-17.56-1.663-33.992-9.408-46.464-21.903l-5.994-6.005c-6.997-7.009-18.351-6.975-25.305,0.076L69.162,458.645l0,0
	c0.018,0.089,0.025,0.182,0.041,0.272c0.019,0.101,0.029,0.206,0.047,0.307c0.125,0.748,0.201,1.51,0.22,2.289
	c0.003,0.134,0.02,0.264,0.02,0.398l0,0l0,0c0,3.36-1.02,6.482-2.766,9.071c-0.582,0.863-1.245,1.667-1.978,2.401
	c-0.366,0.367-0.75,0.716-1.15,1.047c-0.36,0.297-0.737,0.574-1.121,0.84c-0.114,0.079-0.231,0.153-0.347,0.229
	c-0.29,0.19-0.587,0.37-0.889,0.541c-0.122,0.069-0.242,0.139-0.365,0.204c-0.416,0.221-0.839,0.43-1.275,0.615
	c-0.969,0.41-1.986,0.729-3.04,0.945s-2.146,0.33-3.264,0.33l0,0l0,0c-0.398,0-0.788-0.031-1.179-0.06
	c-0.126-0.01-0.255-0.007-0.38-0.019l0,0c-0.507-0.049-1.005-0.125-1.497-0.219c-0.001,0-0.002,0-0.004-0.001
	c-0.001,0-0.003,0-0.004-0.001l-20.437,20.719c0.621,0.39,1.25,0.762,1.886,1.115c0.016,0.009,0.033,0.018,0.05,0.027
	c0.625,0.345,1.256,0.673,1.894,0.982c0.006,0.003,0.012,0.006,0.017,0.008c0.014,0.007,0.028,0.013,0.042,0.02
	c0.64,0.309,1.286,0.601,1.938,0.874c0.013,0.006,0.026,0.011,0.039,0.017c0.664,0.277,1.333,0.537,2.008,0.777
	c0.016,0.006,0.033,0.012,0.049,0.018c0.009,0.003,0.018,0.007,0.028,0.01c0.508,0.18,1.02,0.348,1.534,0.507
	c0.062,0.019,0.123,0.038,0.185,0.057c0.507,0.154,1.016,0.298,1.527,0.432c0.051,0.013,0.102,0.026,0.153,0.039
	c0.668,0.172,1.339,0.325,2.013,0.462c0.009,0.002,0.019,0.004,0.028,0.006c0.671,0.135,1.346,0.254,2.022,0.355
	c0.005,0.001,0.009,0.001,0.014,0.002c1.364,0.203,2.737,0.336,4.112,0.399c0.111,0.005,0.223,0.012,0.334,0.017
	c0.449,0.017,0.899,0.023,1.348,0.025c0.164,0.001,0.329,0.001,0.493,0c0.426-0.003,0.851-0.014,1.276-0.03
	c0.188-0.007,0.376-0.017,0.563-0.028c0.414-0.022,0.829-0.048,1.242-0.083c0.188-0.016,0.376-0.037,0.565-0.056
	c0.417-0.041,0.835-0.083,1.251-0.137c0.136-0.018,0.272-0.041,0.408-0.061c0.885-0.124,1.766-0.278,2.642-0.461
	c0.032-0.007,0.065-0.013,0.097-0.019c0.105-0.022,0.211-0.04,0.317-0.063c0.344-0.076,0.686-0.164,1.029-0.249
	c0.145-0.036,0.289-0.072,0.434-0.109c0.121-0.03,0.242-0.059,0.362-0.091c0.318-0.086,0.635-0.18,0.951-0.274
	c0.288-0.085,0.575-0.171,0.862-0.263c0.301-0.096,0.6-0.198,0.899-0.301c0.14-0.048,0.278-0.1,0.417-0.15
	c0.16-0.058,0.321-0.114,0.481-0.173c0.286-0.107,0.571-0.215,0.854-0.328c0.265-0.106,0.528-0.219,0.791-0.331
	c0.049-0.021,0.098-0.041,0.147-0.062c0.264-0.113,0.528-0.224,0.79-0.344c0.36-0.164,0.715-0.338,1.071-0.513
	c0.21-0.103,0.422-0.201,0.63-0.308c0.402-0.206,0.797-0.428,1.193-0.648c0.149-0.083,0.3-0.159,0.448-0.244
	c0.163-0.094,0.322-0.196,0.484-0.292c0.39-0.231,0.779-0.465,1.162-0.711c0.208-0.133,0.412-0.273,0.617-0.411
	c0.334-0.223,0.668-0.448,0.996-0.683c0.213-0.151,0.423-0.308,0.633-0.464c0.318-0.236,0.633-0.476,0.945-0.722
	c0.206-0.162,0.41-0.326,0.613-0.492c0.227-0.186,0.449-0.38,0.672-0.571c0.086-0.074,0.174-0.146,0.26-0.221
	c0.191-0.167,0.383-0.332,0.571-0.502c0.334-0.303,0.661-0.616,0.987-0.931c0.154-0.148,0.31-0.293,0.462-0.445
	c0.473-0.473,0.938-0.958,1.393-1.459l114.261-126.151l18.685,18.718c0.891,0.893,1.808,1.754,2.739,2.598
	c0.291,0.264,0.589,0.518,0.883,0.776c0.659,0.579,1.326,1.149,2.003,1.704c0.339,0.278,0.68,0.552,1.023,0.823
	c0.687,0.543,1.383,1.071,2.087,1.588c0.313,0.231,0.623,0.466,0.94,0.692c2.031,1.447,4.128,2.79,6.285,4.026
	c0.337,0.193,0.679,0.376,1.019,0.564c0.761,0.421,1.528,0.831,2.303,1.225c0.387,0.197,0.776,0.39,1.166,0.581
	c0.781,0.381,1.57,0.745,2.364,1.099c0.355,0.158,0.707,0.321,1.064,0.474c1.141,0.487,2.29,0.954,3.454,1.385
	c0.919,0.34,1.848,0.657,2.781,0.961c0.275,0.09,0.551,0.174,0.826,0.261c0.694,0.218,1.391,0.426,2.092,0.623
	c0.279,0.079,0.557,0.159,0.837,0.235c1.895,0.512,3.813,0.951,5.75,1.315c0.287,0.054,0.574,0.103,0.862,0.153
	c0.719,0.127,1.441,0.243,2.166,0.349c0.29,0.042,0.579,0.087,0.869,0.126c0.98,0.132,1.964,0.251,2.952,0.345
	c0.737,0.07,1.473,0.103,2.21,0.151c5.958,0.279,13.603-0.382,21.887-1.756c0.789-0.182,1.574-0.376,2.356-0.583
	c0.6-0.159,1.197-0.329,1.793-0.503c0.441-0.128,0.88-0.263,1.319-0.399c0.865-0.268,1.725-0.553,2.581-0.852
	c0.506-0.177,1.012-0.356,1.514-0.544c0.52-0.194,1.038-0.392,1.554-0.598c0.829-0.331,1.654-0.674,2.472-1.034
	c0.43-0.189,0.854-0.39,1.28-0.587c0.629-0.292,1.254-0.591,1.875-0.9c0.36-0.179,0.723-0.353,1.08-0.537
	c0.886-0.458,1.761-0.939,2.629-1.432c0.33-0.188,0.659-0.378,0.986-0.571c0.904-0.532,1.801-1.076,2.683-1.647
	c0.189-0.122,0.374-0.251,0.561-0.374c0.813-0.535,1.616-1.087,2.409-1.655c0.206-0.147,0.414-0.292,0.618-0.441
	c0.9-0.658,1.787-1.338,2.66-2.038c0.193-0.154,0.383-0.312,0.575-0.468c0.906-0.741,1.803-1.496,2.678-2.282l7.234-7.234
	L305.218,359.489z"/>
<path style="fill:#FF395A;" d="M343.188,370.186l-204.339-204.7c-1.913-1.917-5.015-1.917-6.929,0l-13.927,13.952
	c-1.913,1.917-1.913,5.024,0,6.941l204.339,204.7c1.913,1.917,5.015,1.917,6.929,0l13.927-13.951
	C345.101,375.21,345.101,372.103,343.188,370.186z"/>
<path style="fill:#088AFF;" d="M305.302,29.216l-57.858,57.96c-7.542,7.556-7.542,19.806,0,27.362l0,0
	c7.542,7.556,19.771,7.556,27.313,0l2.809-2.814c7.542-7.556,19.771-7.556,27.313,0l0,0c7.542,7.556,7.542,19.806,0,27.362
	l-20.704,20.741c-7.542,7.556-7.542,19.806,0,27.362l0,0c7.542,7.556,19.771,7.556,27.313,0l75.397-76.242L305.302,29.216z"/>
<path style="fill:#00D8D2;" d="M306.921,114.167c0.007-0.001,0.016,0,0.022-0.001c0,0-0.037-0.038-0.09-0.092
	C306.876,114.105,306.899,114.136,306.921,114.167z"/>
<g>
	<path style="fill:#0076CE;" d="M302.83,109.965c-5.771-5.892-15.9-16.225-18.847-19.176c-7.542-7.556-19.771-7.556-27.313,0
		l-2.809,2.814c-3.348,3.354-7.619,5.211-11.993,5.587v0.001c-0.056,0.656-0.075,1.315-0.065,1.973
		c0.002,0.125,0.013,0.249,0.018,0.373c0.018,0.532,0.054,1.064,0.116,1.593c0.021,0.179,0.051,0.356,0.077,0.534
		c0.068,0.472,0.152,0.942,0.255,1.409c0.046,0.208,0.098,0.414,0.151,0.62c0.111,0.433,0.238,0.862,0.379,1.288
		c0.074,0.221,0.149,0.442,0.231,0.661c0.151,0.405,0.321,0.805,0.5,1.201c0.101,0.224,0.199,0.448,0.31,0.668
		c0.194,0.388,0.411,0.768,0.632,1.145c0.124,0.212,0.241,0.426,0.374,0.634c0.252,0.394,0.532,0.774,0.816,1.153
		c0.131,0.175,0.249,0.356,0.387,0.527c0.434,0.54,0.896,1.064,1.396,1.566c7.542,7.556,19.771,7.556,27.313,0l2.809-2.814
		C284.462,104.816,295.263,104.244,302.83,109.965z"/>
	<path style="fill:#0076CE;" d="M365.99,90.01l-75.397,76.242c-3.348,3.354-7.619,5.211-11.993,5.587
		c-0.471,5.491,1.383,11.145,5.577,15.347c7.542,7.556,19.771,7.556,27.313,0l75.397-76.242L365.99,90.01z"/>
</g>
<path style="fill:#D81942;" d="M343.188,370.186l-22.918-22.959l-22.876,18.868l24.939,24.983c1.913,1.917,5.015,1.917,6.929,0
	l13.927-13.951C345.101,375.21,345.101,372.103,343.188,370.186z"/>
<g>
	<path style="fill:#051C1B;" d="M29.813,461.911c0,12.963,10.534,23.51,23.482,23.51s23.482-10.547,23.482-23.51
		c0-12.964-10.534-23.51-23.482-23.511C40.347,438.4,29.813,448.947,29.813,461.911z M62.204,461.911
		c0,4.928-3.997,8.937-8.909,8.937s-8.909-4.009-8.909-8.937s3.997-8.938,8.908-8.938C58.208,452.973,62.204,456.983,62.204,461.911
		z"/>
	<path style="fill:#051C1B;" d="M502.937,216.885l-25.629-25.674c-2.843-2.847-7.456-2.852-10.305-0.009
		c-2.848,2.843-2.852,7.457-0.009,10.305l25.629,25.674c1.115,1.118,1.227,2.423,1.194,3.102c-0.033,0.678-0.269,1.965-1.486,2.968
		L341.195,357.876L202.128,218.564l-50.989-51.079L275.561,16.062c0.999-1.215,2.276-1.451,2.948-1.484
		c0.67-0.034,1.964,0.079,3.074,1.191l13.423,13.447l-52.718,52.812c-10.365,10.382-10.365,27.275,0,37.658
		c5.025,5.033,11.706,7.806,18.814,7.806c7.108,0,13.789-2.772,18.813-7.806l2.81-2.814c2.271-2.275,5.289-3.528,8.5-3.528
		c3.21,0,6.229,1.253,8.5,3.528c4.697,4.705,4.697,12.361,0,17.066l-20.704,20.741c-10.363,10.382-10.363,27.275,0,37.658
		c5.025,5.033,11.706,7.805,18.814,7.805c7.107,0,13.788-2.772,18.838-7.83l70.24-71.027l59.39,59.495
		c2.842,2.847,7.456,2.852,10.305,0.009c2.848-2.843,2.852-7.457,0.009-10.305l-64.568-64.682c-0.001-0.001-0.002-0.002-0.003-0.003
		L310.461,24.07c-0.002-0.002-0.004-0.003-0.005-0.005L291.897,5.473c-3.712-3.719-8.853-5.7-14.093-5.452
		c-5.246,0.254-10.167,2.728-13.504,6.788L140.253,157.78c-1.516-0.662-3.164-1.018-4.868-1.018c-3.257,0-6.319,1.27-8.621,3.577
		l-13.926,13.951c-4.745,4.752-4.745,12.484-0.001,17.237c-0.163-0.163-0.307-0.338-0.458-0.508
		c-12.466,16.515-18.435,37.305-16.478,58.052c1.815,19.233,10.324,37.348,23.962,51.01l19.787,19.821l-44.353,40.2
		c-2.982,2.703-3.208,7.311-0.506,10.292c2.703,2.982,7.311,3.208,10.292,0.506l50.019-45.335c1.477-1.339,2.341-3.224,2.391-5.217
		s-0.719-3.919-2.127-5.33l-25.188-25.233c-11.25-11.269-18.27-26.214-19.767-42.083c-1.549-16.422,2.918-32.88,12.364-46.22
		L307.26,386.293c-13.316,9.471-29.744,13.949-46.138,12.396c-15.833-1.499-30.747-8.529-41.994-19.797l-18.685-18.718
		c-1.41-1.412-3.335-2.187-5.334-2.136c-1.995,0.048-3.884,0.913-5.223,2.393L75.625,486.582
		c-6.129,6.766-14.524,10.614-23.64,10.835c-9.135,0.227-17.686-3.215-24.133-9.674c-6.459-6.47-9.89-15.072-9.662-24.221
		c0.229-9.148,4.084-17.566,10.856-23.704l54.279-49.197c2.982-2.703,3.208-7.311,0.506-10.292
		c-2.703-2.982-7.311-3.208-10.292-0.506L19.26,429.02c-9.755,8.842-15.309,20.965-15.638,34.138
		c-0.329,13.174,4.613,25.561,13.916,34.881c9.014,9.031,20.907,13.962,33.606,13.962c0.396,0,0.796-0.005,1.194-0.015
		c13.146-0.319,25.252-5.867,34.087-15.621l109.117-120.472l13.271,13.295c13.639,13.664,31.728,22.191,50.934,24.01
		c20.71,1.956,41.462-4.016,57.95-16.497c2.234,1.997,5.078,3.101,8.099,3.101c3.257,0,6.318-1.27,8.621-3.576l13.926-13.951
		c3.639-3.644,4.477-9.037,2.535-13.498v0.001l150.723-124.283c4.049-3.339,6.517-8.262,6.771-13.507
		C508.627,225.742,506.646,220.602,502.937,216.885z M306.333,182.039c-2.271,2.275-5.29,3.528-8.5,3.528s-6.229-1.253-8.5-3.528
		c-4.697-4.705-4.697-12.361,0-17.066l20.704-20.741c10.364-10.382,10.364-27.275,0-37.658c-5.025-5.033-11.706-7.805-18.814-7.805
		s-13.789,2.772-18.813,7.805l-2.81,2.815c-2.271,2.275-5.289,3.528-8.5,3.528c-3.21,0-6.229-1.253-8.5-3.528
		c-4.697-4.705-4.697-12.361,0-17.066l52.7-52.794l71.313,71.439L306.333,182.039z M142.354,158.961
		c-0.042-0.029-0.081-0.063-0.123-0.092C142.273,158.898,142.312,158.932,142.354,158.961z M144.007,160.339
		c-0.278-0.278-0.568-0.54-0.866-0.788C143.44,159.799,143.729,160.061,144.007,160.339z M325.797,384.235L124.826,182.908
		l10.559-10.578l200.971,201.327L325.797,384.235z M350.386,367.77c0.002,0.003,0.003,0.006,0.005,0.009
		C350.389,367.776,350.387,367.773,350.386,367.77z M348.345,365.039c0.283,0.283,0.546,0.577,0.794,0.88
		C348.89,365.616,348.627,365.322,348.345,365.039z M349.663,366.624c0.049,0.07,0.105,0.137,0.152,0.208
		C349.768,366.761,349.713,366.694,349.663,366.624z"/>
</g>















</svg>
