<svg  enable-background="new 0 0 64 64" height="512" viewBox="0 0 64 64" width="512" xmlns="http://www.w3.org/2000/svg"><path d="m18.99 52.99v1c0 1.1-.9 2-2 2h-3.99-4-3.99c-1.1 0-2-.9-2-2v-1h.05z" fill="#e6e9ed"/><path d="m18.99 45v7.99h-15.93-.05v-7.99c0-1.1.9-2 2-2h5.99 5.99c1.1 0 2 .9 2 2z" fill="#5d9cec"/><path d="m14 58.99v.01h-6v-.01l1-3h4z" fill="#ccd1d9"/><path d="m56 58.99v.01h-6v-.01l1-3h4z" fill="#ccd1d9"/><path d="m60.99 45v7.99h-15.93-.05v-7.99c0-1.1.9-2 2-2h5.99 5.99c1.1 0 2 .9 2 2z" fill="#5d9cec"/><path d="m53 30c1.11 0 2 .9 2 2s-.89 2-2 2c-1.1 0-2-.9-2-2s.9-2 2-2z" fill="#656d78"/><path d="m45.06 52.99h15.93v1c0 1.1-.9 2-2 2h-3.99-4-3.99c-1.1 0-2-.9-2-2v-1z" fill="#e6e9ed"/><path d="m45.06 15h15.93v1c0 1.1-.9 2-2 2h-3.99-4-3.99c-1.1 0-2-.9-2-2v-1z" fill="#e6e9ed"/><path d="m55 18 1 3h-3-3l1-3z" fill="#ccd1d9"/><path d="m60.99 7v8h-15.93-.05v-8c0-1.09.9-2 2-2h11.98c1.1 0 2 .91 2 2z" fill="#5d9cec"/><path d="m43 23v3h-14l-.75-3z" fill="#f6bb42"/><path d="m43 32v8h-22v-8-6-4h7l.25 1 .75 3h14z" fill="#ffce54"/><path d="m13 18 1 3h-3-3l1-3z" fill="#ccd1d9"/><path d="m18.99 15v1c0 1.1-.9 2-2 2h-3.99-4-3.99c-1.1 0-2-.9-2-2v-1h.05z" fill="#e6e9ed"/><path d="m18.99 7v8h-15.93-.05v-8c0-1.09.9-2 2-2h11.98c1.1 0 2 .91 2 2z" fill="#5d9cec"/><path d="m11 30c1.11 0 2 .9 2 2s-.89 2-2 2c-1.1 0-2-.9-2-2s.9-2 2-2z" fill="#656d78"/><path d="m43 41h-21.998c-.553 0-1-.447-1-1l-.004-18.003c0-.266.104-.52.293-.708.188-.188.441-.293.707-.293h7.004c.459 0 .859.313.97.758l.811 3.246h13.217c.553 0 1 .447 1 1v14c0 .553-.447 1-1 1zm-20.998-2h19.998v-12h-12.998c-.459 0-.859-.313-.97-.758l-.812-3.246h-5.222z"/><path d="m43.002 23.997h-14.75c-.553 0-1-.447-1-1s.447-1 1-1h14.75c.553 0 1 .447 1 1s-.447 1-1 1z"/><path d="m43.002 27c-.553 0-1-.447-1-1v-3.003c0-.553.447-1 1-1s1 .447 1 1v3.003c0 .553-.447 1-1 1z"/><path d="m9 33h-8c-.553 0-1-.447-1-1s.447-1 1-1h8c.553 0 1 .447 1 1s-.447 1-1 1z"/><path d="m11 35c-1.654 0-3-1.346-3-3s1.346-3 3-3 3 1.346 3 3-1.346 3-3 3zm0-4c-.552 0-1 .448-1 1s.448 1 1 1 1-.448 1-1-.448-1-1-1z"/><path d="m20.998 33h-7.998c-.553 0-1-.447-1-1s.447-1 1-1h7.998c.553 0 1 .447 1 1s-.447 1-1 1z"/><path d="m51.002 33h-8c-.553 0-1-.447-1-1s.447-1 1-1h8c.553 0 1 .447 1 1s-.447 1-1 1z"/><path d="m53.002 35c-1.654 0-3-1.346-3-3s1.346-3 3-3 3 1.346 3 3-1.346 3-3 3zm0-4c-.552 0-1 .448-1 1s.448 1 1 1 1-.448 1-1-.448-1-1-1z"/><path d="m63 33h-7.998c-.553 0-1-.447-1-1s.447-1 1-1h7.998c.553 0 1 .447 1 1s-.447 1-1 1z"/><path d="m18.992 15.999h-15.935c-.553 0-1-.447-1-1s.447-1 1-1h15.936c.553 0 1 .447 1 1s-.448 1-1.001 1z"/><path d="m16.992 18.998h-11.982c-1.654 0-3-1.346-3-3v-8.993c0-1.654 1.346-3 3-3h11.982c1.654 0 3 1.346 3 3v8.993c0 1.654-1.346 3-3 3zm-11.982-12.993c-.552 0-1 .448-1 1v8.993c0 .552.448 1 1 1h11.982c.552 0 1-.448 1-1v-8.993c0-.552-.448-1-1-1z"/><path d="m8.002 21.996c-.104 0-.211-.017-.316-.052-.523-.175-.807-.741-.632-1.265l1-2.998c.175-.523.735-.808 1.265-.632.523.175.807.741.632 1.265l-1 2.998c-.14.419-.53.684-.949.684z"/><path d="m13.998 21.996c-.419 0-.809-.265-.948-.684l-1-2.998c-.175-.523.108-1.09.632-1.265.522-.176 1.09.108 1.265.632l1 2.998c.175.523-.108 1.09-.632 1.265-.105.035-.212.052-.317.052z"/><path d="m15 22h-7.998c-.553 0-1-.447-1-1s.447-1 1-1h7.998c.553 0 1 .447 1 1s-.447 1-1 1z"/><path d="m11 31.003c-.553 0-1-.447-1-1v-9.006c0-.553.447-1 1-1s1 .447 1 1v9.006c0 .553-.447 1-1 1z"/><path d="m60.992 15.999h-15.935c-.553 0-1-.447-1-1s.447-1 1-1h15.936c.553 0 1 .447 1 1s-.448 1-1.001 1z"/><path d="m58.992 18.998h-11.982c-1.654 0-3-1.346-3-3v-8.993c0-1.654 1.346-3 3-3h11.982c1.654 0 3 1.346 3 3v8.993c0 1.654-1.346 3-3 3zm-11.982-12.993c-.552 0-1 .448-1 1v8.993c0 .552.448 1 1 1h11.982c.552 0 1-.448 1-1v-8.993c0-.552-.448-1-1-1z"/><path d="m50.004 21.996c-.104 0-.211-.017-.316-.052-.523-.175-.807-.741-.632-1.265l1-2.998c.175-.523.735-.808 1.265-.632.523.175.807.741.632 1.265l-1 2.998c-.14.419-.53.684-.949.684z"/><path d="m56 21.996c-.419 0-.809-.265-.948-.684l-1-2.998c-.175-.523.108-1.09.632-1.265.522-.176 1.09.108 1.265.632l1 2.998c.175.523-.108 1.09-.632 1.265-.105.035-.213.052-.317.052z"/><path d="m57.002 22h-7.998c-.553 0-1-.447-1-1s.447-1 1-1h7.998c.553 0 1 .447 1 1s-.447 1-1 1z"/><path d="m60.992 53.994h-15.935c-.553 0-1-.447-1-1s.447-1 1-1h15.936c.553 0 1 .447 1 1s-.448 1-1.001 1z"/><path d="m58.992 56.993h-11.982c-1.654 0-3-1.346-3-3v-8.993c0-1.654 1.346-3 3-3h11.982c1.654 0 3 1.346 3 3v8.993c0 1.654-1.346 3-3 3zm-11.982-12.993c-.552 0-1 .448-1 1v8.993c0 .552.448 1 1 1h11.982c.552 0 1-.448 1-1v-8.993c0-.552-.448-1-1-1z"/><path d="m50.004 59.991c-.104 0-.211-.017-.316-.052-.523-.175-.807-.741-.632-1.265l1-2.998c.175-.523.735-.808 1.265-.632.523.175.807.741.632 1.265l-1 2.998c-.14.42-.53.684-.949.684z"/><path d="m56 59.991c-.419 0-.809-.265-.948-.684l-1-2.998c-.175-.523.108-1.09.632-1.265.522-.176 1.09.108 1.265.632l1 2.998c.175.523-.108 1.09-.632 1.265-.105.036-.213.052-.317.052z"/><path d="m57.002 59.995h-7.998c-.553 0-1-.447-1-1s.447-1 1-1h7.998c.553 0 1 .447 1 1s-.447 1-1 1z"/><path d="m53.002 31.003c-.553 0-1-.447-1-1v-9.006c0-.553.447-1 1-1s1 .447 1 1v9.006c0 .553-.447 1-1 1z"/><path d="m53.002 44.005c-.553 0-1-.447-1-1v-9.006c0-.553.447-1 1-1s1 .447 1 1v9.006c0 .553-.447 1-1 1z"/><path d="m18.992 53.994h-15.935c-.553 0-1-.447-1-1s.447-1 1-1h15.936c.553 0 1 .447 1 1s-.448 1-1.001 1z"/><path d="m16.992 56.993h-11.982c-1.654 0-3-1.346-3-3v-8.993c0-1.654 1.346-3 3-3h11.982c1.654 0 3 1.346 3 3v8.993c0 1.654-1.346 3-3 3zm-11.982-12.993c-.552 0-1 .448-1 1v8.993c0 .552.448 1 1 1h11.982c.552 0 1-.448 1-1v-8.993c0-.552-.448-1-1-1z"/><path d="m8.002 59.991c-.104 0-.211-.017-.316-.052-.523-.175-.807-.741-.632-1.265l1-2.998c.175-.523.735-.808 1.265-.632.523.175.807.741.632 1.265l-1 2.998c-.14.42-.53.684-.949.684z"/><path d="m13.998 59.991c-.419 0-.809-.265-.948-.684l-1-2.998c-.175-.523.108-1.09.632-1.265.522-.176 1.09.108 1.265.632l1 2.998c.175.523-.108 1.09-.632 1.265-.105.036-.212.052-.317.052z"/><path d="m15 59.995h-7.998c-.553 0-1-.447-1-1s.447-1 1-1h7.998c.553 0 1 .447 1 1s-.447 1-1 1z"/><path d="m11 44.005c-.553 0-1-.447-1-1v-9.006c0-.553.447-1 1-1s1 .447 1 1v9.006c0 .553-.447 1-1 1z"/></svg>