<svg height="512" viewBox="0 0 60 60" width="512" xmlns="http://www.w3.org/2000/svg"><g  fill="none" fill-rule="evenodd"><g  fill-rule="nonzero"><g  transform="translate(1 1)"><ellipse  cx="20" cy="4" fill="#9d27b0" rx="20" ry="4"/><path  d="m20 0h-1.5c10.35.17 18.5 1.89 18.5 4s-8.15 3.83-18.5 4h1.5c11 0 20-1.79 20-4s-8.95-4-20-4z" fill="#6a1b9a"/><path  d="m24 41c-.0059767 2.3590814.4846585 4.6930059 1.44 6.85-1.73.15-3.56.15-5.44.15-11 0-20-1.79-20-4v-14c0 2.21 9 4 20 4 1.94 0 3.8-.06 5.58-.16-1.0477323 2.2411169-1.5872626 4.6860769-1.58 7.16z" fill="#673ab7"/><path  d="m40 17v7c-6.2419547.37099-11.7763767 4.1386985-14.41 9.81-1.78.1-3.64.16-5.58.16-11.01.03-20.01-1.76-20.01-3.97v-13c0 2.21 9 4 20 4s20-1.79 20-4z" fill="#9d27b0"/><path  d="m37 19.1v4.9c-6.2419547.37099-11.7763767 4.1386985-14.41 9.81-1.4.08-2.87.12-4.37.14l1.78.05c1.94 0 3.8-.06 5.58-.16 2.626911-5.6859991 8.1676364-9.4669101 14.42-9.84v-7c0 .77-1.11 1.49-3 2.1z" fill="#6a1b9a"/><path  d="m40 4v13c0 2.21-9 4-20 4s-20-1.79-20-4v-13c0 2.21 9 4 20 4s20-1.79 20-4z" fill="#673ab7"/><path  d="m37 6.1v10.9c0 2.11-8.15 3.83-18.5 4h1.5c11 0 20-1.79 20-4v-13c0 .77-1.11 1.49-3 2.1z" fill="#4527a0"/><path  d="m58 41c.0012468 8.0409605-5.6314282 14.9830441-13.5001391 16.6384701-7.868711 1.655426-15.8210736-2.4286261-19.0598609-9.7884701-1.9663653-4.4701549-1.9153663-9.5700624.14-14 2.6241094-5.689889 8.1653875-9.4750201 14.42-9.85h1c4.5086803 0 8.8326968 1.7910663 12.0208153 4.9791847 3.1881184 3.1881185 4.9791847 7.512135 4.9791847 12.0208153z" fill="#02a9f4"/><path  d="m41 24c-.33 0-.67 0-1 0h-.5c8.7321982.8229728 15.4048903 8.1541066 15.4048903 16.925s-6.6726921 16.1020272-15.4048903 16.925c.5 0 1 .07 1.52.07 9.3888406-.0000001 16.9999997-7.6111594 16.9999997-17s-7.6111591-16.9999999-16.9999997-17z" fill="#0377bc"/><circle  cx="41" cy="41" fill="#f5f5f5" r="4"/></g><g  fill="#000"><path  d="m29 18.23h.09c2.7476065-.1993402 5.4757169-.6105627 8.16-1.23.5357162-.1380712.8580712-.6842838.72-1.22s-.6842838-.8580712-1.22-.72c-2.5844212.6057915-5.2125521 1.0070329-7.86 1.2-.5327656.0577855-.9252781.5252722-.89 1.06.046703.5168638.4810348.9121057 1 .91z"/><circle  cx="5" cy="11" r="1"/><path  d="m5 14c-.55228475 0-1 .4477153-1 1v2c0 .5522847.44771525 1 1 1s1-.4477153 1-1v-2c0-.5522847-.44771525-1-1-1z"/><circle  cx="5" cy="24" r="1"/><path  d="m5 27c-.55228475 0-1 .4477153-1 1v2c0 .5522847.44771525 1 1 1s1-.4477153 1-1v-2c0-.5522847-.44771525-1-1-1z"/><circle  cx="5" cy="37" r="1"/><path  d="m5 40c-.55228475 0-1 .4477153-1 1v2c0 .5522847.44771525 1 1 1s1-.4477153 1-1v-2c0-.5522847-.44771525-1-1-1z"/><path  d="m42 24v-19c0-4.94-20.14-5-21-5s-21 .06-21 5v40c0 4.94 20.14 5 21 5 1.68 0 3.29 0 4.84-.12 3.895448 8.0002313 13.0520226 11.9535957 21.5461595 9.3025857 8.494137-2.6510099 13.7765881-11.1107769 12.4300342-19.906515-1.346554-8.7957381-8.9179871-15.287683-17.8161937-15.2760707zm-16 9.87c-1.67.08-3.34.13-5 .13-11.78 0-18.5-1.93-19-3v-10.64c5.11 2.64 18.31 2.64 19 2.64s13.89 0 19-2.64v3.76c-6.0083125.6916177-11.2676808 4.354392-14 9.75zm14-15.87c-.48 1.1-7.2 3-19 3s-18.57-1.95-19-3v-10.64c5.11 2.64 18.31 2.64 19 2.64s13.89 0 19-2.64zm-19-16c11.67 0 18.37 1.9 19 3-.61 1.1-7.31 3-19 3s-18.52-1.94-19-2.94v-.06c.48-1.06 7.2-3 19-3zm0 46c-11.78 0-18.5-1.94-19-3v-11.64c5.11 2.64 18.31 2.64 19 2.64 1.33 0 2.71 0 4.09-.1-1.4266838 3.8685964-1.4514546 8.1150227-.07 12-1.3.1-2.63.1-4.02.1zm21 10c-8.836556 0-16-7.163444-16-16s7.163444-16 16-16 16 7.163444 16 16c0 4.2434638-1.6857094 8.3131264-4.6862915 11.3137085s-7.0702447 4.6862915-11.3137085 4.6862915z"/><path  d="m42 30c.5522847 0 1-.4477153 1-1s-.4477153-1-1-1c-7.7319865 0-14 6.2680135-14 14 0 .5522847.4477153 1 1 1s1-.4477153 1-1c0-6.627417 5.372583-12 12-12z"/><path  d="m42 54c-.5522847 0-1 .4477153-1 1s.4477153 1 1 1c7.7319865 0 14-6.2680135 14-14 0-.5522847-.4477153-1-1-1s-1 .4477153-1 1c0 6.627417-5.372583 12-12 12z"/><path  d="m43 33c0-.5522847-.4477153-1-1-1-5.5228475 0-10 4.4771525-10 10 0 .5522847.4477153 1 1 1s1-.4477153 1-1c0-4.418278 3.581722-8 8-8 .5522847 0 1-.4477153 1-1z"/><path  d="m41 51c0 .5522847.4477153 1 1 1 5.5228475 0 10-4.4771525 10-10 0-.5522847-.4477153-1-1-1s-1 .4477153-1 1c0 4.418278-3.581722 8-8 8-.5522847 0-1 .4477153-1 1z"/><path  d="m47 42c0-2.7614237-2.2385763-5-5-5s-5 2.2385763-5 5 2.2385763 5 5 5 5-2.2385763 5-5zm-8 0c0-1.6568542 1.3431458-3 3-3s3 1.3431458 3 3-1.3431458 3-3 3-3-1.3431458-3-3z"/></g></g></g></svg>