<svg  enable-background="new 0 0 512 512" height="512" viewBox="0 0 512 512" width="512"
     xmlns="http://www.w3.org/2000/svg">
    <g >
        <g >
            <path  d="m391 10h-279v492h368v-403c-34.757-34.757-54.243-54.243-89-89z" fill="#fff"/>
            <path  d="m392.333 97.667h87.667l-87.667-87.667z" fill="#eff3f3"/>
            <path  d="m168 158.005h251.754v127.991h-251.754z" fill="#f6838d"/>
        </g>
        <circle  cx="112" cy="422" fill="#91def5" r="80"/>
        <g >
            <path
                  d="m487.071 91.929-89-89c-1.875-1.875-4.419-2.929-7.071-2.929h-279c-5.523 0-10 4.478-10 10v322.559c-44.937 4.99-80 43.195-80 89.441 0 49.626 40.374 90 90 90h368c5.523 0 10-4.478 10-10v-403c0-2.652-1.054-5.195-2.929-7.071zm-86.071-57.787 54.857 54.858h-54.857zm-359 387.858c0-38.598 31.402-70 70-70s70 31.402 70 70-31.402 70-70 70-70-31.402-70-70zm126.499 70c20.419-16.513 33.501-41.755 33.501-70 0-46.246-35.063-84.451-80-89.441v-312.559h259v79c0 5.522 4.477 10 10 10h79v383z"/>
            <path
                  d="m419.754 339.991h-192.678c-5.523 0-10 4.478-10 10s4.477 10 10 10h192.678c5.523 0 10-4.478 10-10s-4.477-10-10-10z"/>
            <path
                  d="m168 104h30.817c5.523 0 10-4.478 10-10s-4.477-10-10-10h-30.817c-5.523 0-10 4.478-10 10s4.477 10 10 10z"/>
            <path
                  d="m254.817 104h62.458c5.523 0 10-4.478 10-10s-4.477-10-10-10h-62.458c-5.523 0-10 4.478-10 10s4.477 10 10 10z"/>
            <path
                  d="m419.754 403.986h-162.087c-5.523 0-10 4.478-10 10s4.477 10 10 10h162.087c5.523 0 10-4.478 10-10s-4.477-10-10-10z"/>
            <path
                  d="m419.754 148.005h-80.877c-5.523 0-10 4.478-10 10s4.477 10 10 10h70.877v107.99h-231.754v-107.99h70.877c5.523 0 10-4.478 10-10s-4.477-10-10-10h-80.877c-5.523 0-10 4.478-10 10v127.99c0 5.522 4.477 10 10 10h251.754c5.523 0 10-4.478 10-10v-127.99c0-5.523-4.477-10-10-10z"/>
            <path
                  d="m286.81 150.93c-1.87 1.87-2.93 4.44-2.93 7.07 0 2.64 1.06 5.21 2.93 7.08 1.86 1.859 4.44 2.93 7.07 2.93s5.21-1.07 7.07-2.93c1.86-1.87 2.93-4.44 2.93-7.08 0-2.63-1.07-5.2-2.93-7.07-1.86-1.86-4.44-2.93-7.07-2.93-2.64 0-5.22 1.069-7.07 2.93z"/>
            <path
                  d="m140.784 415.404c3.905-3.905 3.905-10.237 0-14.143-3.905-3.904-10.237-3.904-14.142 0l-20.262 20.263-9.021-9.021c-3.905-3.904-10.237-3.904-14.143 0-3.905 3.905-3.905 10.237 0 14.143l16.093 16.093c1.875 1.875 4.419 2.929 7.071 2.929s5.196-1.054 7.071-2.929z"/>
        </g>
    </g>
</svg>