<svg  enable-background="new 0 0 510.069 510.069" height="512" viewBox="0 0 510.069 510.069" width="512"
     xmlns="http://www.w3.org/2000/svg">
    <g>
        <circle cx="254.534" cy="255.034" fill="#fee565" r="247.534"/>
        <path d="m83.911 255.034c0-123.628 90.651-226.086 209.096-244.562-12.533-1.955-25.392-2.972-38.473-2.972-136.709 0-247.534 110.825-247.534 247.534s110.825 247.534 247.534 247.534c13.081 0 25.947-1.018 38.48-2.973-118.445-18.475-209.103-120.932-209.103-244.561z"
              fill="#fdd62f"/>
        <g>
            <path d="m469.618 378.712c-3.523-2.18-8.145-1.091-10.324 2.432-21.142 34.168-50.755 62.733-85.638 82.607-35.961 20.488-76.98 31.318-118.622 31.318-88.24 0-169.179-48.254-211.23-125.932-1.972-3.642-6.522-4.997-10.166-3.025-3.643 1.972-4.997 6.523-3.025 10.166 44.675 82.526 130.669 133.792 224.421 133.792 44.241 0 87.828-11.51 126.047-33.285 37.055-21.112 68.511-51.455 90.968-87.748 2.18-3.524 1.091-8.146-2.431-10.325z"/>
            <path d="m30.851 340.953c-10.518-27.425-15.851-56.333-15.851-85.919 0-54.629 18.858-108.098 53.099-150.557 2.601-3.224 2.095-7.946-1.13-10.546-3.224-2.601-7.946-2.094-10.546 1.13-17.895 22.189-31.838 46.978-41.442 73.676-9.94 27.635-14.981 56.67-14.981 86.297 0 31.429 5.668 62.144 16.846 91.29 1.144 2.984 3.988 4.816 7.004 4.816.893 0 1.801-.161 2.684-.5 3.868-1.482 5.8-5.819 4.317-9.687z"/>
            <path d="m435.371 74.698c-48.17-48.169-112.215-74.698-180.337-74.698-66.022 0-128.643 25.138-176.326 70.782-2.992 2.864-3.096 7.612-.232 10.604s7.612 3.096 10.604.232c44.878-42.959 103.816-66.618 165.954-66.618 64.116 0 124.394 24.968 169.73 70.304 45.337 45.336 70.305 105.615 70.305 169.73 0 34.417-7.128 67.64-21.186 98.746-1.706 3.775-.029 8.217 3.746 9.923 1.002.453 2.052.667 3.084.667 2.856 0 5.586-1.641 6.839-4.413 14.941-33.061 22.517-68.362 22.517-104.924 0-68.121-26.528-132.166-74.698-180.335z"/>
            <path d="m171.084 301.871c-1.455-3.879-5.78-5.843-9.656-4.388-3.878 1.455-5.843 5.778-4.388 9.656 7.366 19.635 20.353 36.429 37.556 48.564 17.601 12.417 38.328 18.98 59.938 18.98s42.337-6.563 59.938-18.98c17.203-12.136 30.189-28.929 37.556-48.564 1.455-3.878-.509-8.202-4.388-9.656-3.877-1.456-8.201.509-9.656 4.388-12.973 34.58-46.509 57.813-83.45 57.813s-70.477-23.234-83.45-57.813z"/>
            <path d="m164.71 174.381c-24.978 0-45.299 20.321-45.299 45.298 0 4.142 3.358 7.5 7.5 7.5s7.5-3.358 7.5-7.5c0-16.707 13.592-30.298 30.299-30.298s30.299 13.592 30.299 30.298c0 4.142 3.358 7.5 7.5 7.5s7.5-3.358 7.5-7.5c0-24.978-20.321-45.298-45.299-45.298z"/>
            <path d="m315.059 219.679c0-16.707 13.592-30.298 30.299-30.298s30.299 13.592 30.299 30.298c0 4.142 3.358 7.5 7.5 7.5s7.5-3.358 7.5-7.5c0-24.978-20.321-45.298-45.299-45.298s-45.299 20.321-45.299 45.298c0 4.142 3.358 7.5 7.5 7.5s7.5-3.358 7.5-7.5z"/>
            <path d="m63.2 248.947c-3.914-1.354-8.185.722-9.54 4.636l-11.058 31.97c-1.354 3.915.722 8.186 4.636 9.54.812.281 1.639.414 2.452.414 3.108 0 6.014-1.948 7.087-5.05l11.058-31.97c1.355-3.915-.721-8.186-4.635-9.54z"/>
            <path d="m84.412 295.507c3.108 0 6.014-1.948 7.087-5.05l11.058-31.97c1.354-3.915-.722-8.186-4.636-9.54-3.916-1.354-8.186.722-9.54 4.636l-11.058 31.97c-1.354 3.915.722 8.186 4.636 9.54.812.28 1.639.414 2.453.414z"/>
            <path d="m414.6 295.507c3.108 0 6.014-1.948 7.087-5.05l11.058-31.97c1.354-3.915-.722-8.186-4.636-9.54-3.915-1.354-8.186.722-9.54 4.636l-11.058 31.97c-1.354 3.915.722 8.186 4.636 9.54.812.28 1.639.414 2.453.414z"/>
            <path d="m449.321 295.507c3.108 0 6.014-1.948 7.087-5.05l11.058-31.97c1.354-3.915-.722-8.186-4.636-9.54-3.913-1.354-8.186.722-9.54 4.636l-11.058 31.97c-1.354 3.915.722 8.186 4.636 9.54.813.28 1.639.414 2.453.414z"/>
        </g>
    </g>
</svg>