<svg  enable-background="new 0 0 512 512" height="512" viewBox="0 0 512 512" width="512"
     xmlns="http://www.w3.org/2000/svg">
    <g>
        <g>
            <path d="m502 406c0 33.14-26.86 60-60 60h-372c-33.14 0-60-26.86-60-60z" fill="#eefaff"/>
            <path d="m55 166h402v240h-402z" fill="#a0c8ff"/>
            <path d="m346 226-90 120-90-120h45c0-14.518 0-105.386 0-120h90v120z" fill="#a7e8a6"/>
        </g>
        <g>
            <path d="m361 116c5.522 0 10-4.477 10-10v-60c0-5.523-4.478-10-10-10h-210c-5.522 0-10 4.477-10 10v60c0 5.523 4.478 10 10 10s10-4.477 10-10v-50h190v50c0 5.523 4.478 10 10 10z"/>
            <path d="m502 396h-35v-230c0-5.523-4.478-10-10-10h-146v-50c0-5.523-4.478-10-10-10h-90c-5.522 0-10 4.477-10 10v50h-146c-5.522 0-10 4.477-10 10v230h-35c-5.522 0-10 4.477-10 10 0 38.598 31.402 70 70 70h141c5.522 0 10-4.477 10-10s-4.478-10-10-10h-141c-24.146 0-44.35-17.206-48.995-40.01h469.99c-4.645 22.804-24.849 40.01-48.995 40.01h-141c-5.522 0-10 4.477-10 10s4.478 10 10 10h141c38.598 0 70-31.402 70-70 0-5.523-4.478-10-10-10zm-291-160c5.522 0 10-4.477 10-10v-110h70v110c0 5.523 4.478 10 10 10h25l-70 93.333-70-93.333zm236 160h-382v-220h136v40h-35c-3.788 0-7.25 2.14-8.944 5.528-1.693 3.388-1.328 7.442.944 10.472l90 120c1.889 2.518 4.853 4 8 4s6.111-1.482 8-4l90-120c2.272-3.03 2.638-7.084.944-10.472s-5.156-5.528-8.944-5.528h-35v-40h136z"/>
            <circle cx="256" cy="466" r="10"/>
        </g>
    </g>
</svg>