<?xml version="1.0" standalone="no"?><!DOCTYPE svg PUBLIC "-//W3C//DTD SVG 1.1//EN"
        "http://www.w3.org/Graphics/SVG/1.1/DTD/svg11.dtd">
<svg t="1599816002595"  viewBox="0 0 1024 1024" version="1.1" xmlns="http://www.w3.org/2000/svg"
     xmlns:xlink="http://www.w3.org/1999/xlink" width="200" height="200">
    <defs>
        <style type="text/css"></style>
    </defs>
    <path d="M976.21333333 277.16266667l-420.52266666 382.29333333c-32.768 27.30666667-76.45866667 27.30666667-109.22666667 0L47.78666667 299.008v262.144c0 16.384-10.92266667 27.30666667-27.30666667 27.30666667s-27.30666667-10.92266667-27.30666667-27.30666667V293.54666667c0-76.45866667 65.536-136.53333333 141.99466667-136.53333334h753.664c76.45866667 0 141.99466667 60.07466667 141.99466667 136.53333334v436.90666666c0 76.45866667-65.536 136.53333333-141.99466667 136.53333334H135.168c-76.45866667 0-141.99466667-60.07466667-141.99466667-136.53333334v-43.69066666c0-16.384 10.92266667-27.30666667 27.30666667-27.30666667s27.30666667 10.92266667 27.30666667 27.30666667v43.69066666c0 43.69066667 38.22933333 81.92 87.38133333 81.92h753.664c49.152 0 87.38133333-38.22933333 87.38133333-81.92V277.16266667z m-32.768-43.69066667c-16.384-10.92266667-32.768-21.84533333-60.07466666-21.84533333H135.168c-27.30666667 0-49.152 10.92266667-65.536 27.30666666L484.69333333 621.22666667c10.92266667 10.92266667 27.30666667 10.92266667 32.768 0l425.984-387.75466667z"
          fill="#536DFE" ></path>
    <path d="M20.48 785.06666667l311.296-273.06666667 38.22933333 43.69066667-311.296 273.06666666L20.48 785.06666667z m939.34933333 5.46133333c10.92266667 10.92266667 10.92266667 27.30666667 0 38.22933333-10.92266667 10.92266667-27.30666667 10.92266667-38.22933333 0L724.992 653.99466667c-10.92266667-10.92266667-10.92266667-27.30666667 0-38.22933334s27.30666667-10.92266667 38.22933333 0l196.608 174.76266667z"
          fill="#536DFE" ></path>
</svg>