<?xml version="1.0" standalone="no"?><!DOCTYPE svg PUBLIC "-//W3C//DTD SVG 1.1//EN"
        "http://www.w3.org/Graphics/SVG/1.1/DTD/svg11.dtd">
<svg t="1599816007644"  viewBox="0 0 1024 1024" version="1.1" xmlns="http://www.w3.org/2000/svg"
     xmlns:xlink="http://www.w3.org/1999/xlink" width="200" height="200">
    <defs>
        <style type="text/css"></style>
    </defs>
    <path d="M512 11.37777813A495.616 495.616 0 0 0 11.37777813 501.5324448 491.06488853 491.06488853 0 0 0 353.62133333 967.11111147c25.03111147 4.55111147 34.13333333-10.4675552 34.13333334-23.66577814v-83.28533333c-139.264 29.58222187-168.84622187-65.536-168.84622187-65.536a130.16177813 130.16177813 0 0 0-55.52355627-71.9075552c-45.51111147-30.03733333 3.64088853-29.58222187 3.6408896-29.58222293a105.13066667 105.13066667 0 0 1 76.45866667 50.51733333 107.86133333 107.86133333 0 0 0 145.6355552 40.5048896 106.04088853 106.04088853 0 0 1 31.85777813-65.536c-111.04711147-12.288-227.5555552-54.15822187-227.55555626-242.11911147a188.87111147 188.87111147 0 0 1 50.51733333-132.43733333 172.032 172.032 0 0 1 5.00622293-129.2515552s42.32533333-13.19822187 136.53333334 50.06222187a486.05866667 486.05866667 0 0 1 250.3111104 0c95.57333333-63.2604448 136.53333333-50.06222187 136.53333333-50.06222187a172.032 172.032 0 0 1 5.00622293 129.2515552A188.87111147 188.87111147 0 0 1 830.57777813 475.59111147c0 188.416-117.41866667 229.83111147-227.55555626 242.1191104a113.77777813 113.77777813 0 0 1 34.13333333 91.02222293v134.25777707c0 15.92888853 9.10222187 28.672 34.13333333 23.66577813A491.52 491.52 0 0 0 1012.62222187 501.5324448 495.616 495.616 0 0 0 512 11.37777813"></path>
</svg>