<?xml version="1.0" encoding="iso-8859-1"?>
<!-- Generator: Adobe Illustrator 19.0.0, SVG Export Plug-In . SVG Version: 6.00 Build 0)  -->
<svg version="1.1"  xmlns="http://www.w3.org/2000/svg" xmlns:xlink="http://www.w3.org/1999/xlink" x="0px" y="0px"
	 viewBox="0 0 511.999 511.999" style="enable-background:new 0 0 511.999 511.999;" xml:space="preserve">
<path style="fill:#8DCE55;" d="M390.472,57.312c-68.642,61.344-111.807,154.222-136.129,235.023
	c27.048,89.853,33.266,164.769,33.266,164.769h45.117c0-199.012,45.941-330.532,72.138-389.351
	C408.855,58.795,397.786,50.777,390.472,57.312z"/>
<path style="fill:#6DC82A;" d="M264.907,260.023c-3.852,10.912-7.375,21.717-10.564,32.312
	c27.048,89.853,33.266,164.769,33.266,164.769h21.025C308.635,457.104,300.862,363.474,264.907,260.023z"/>
<path style="fill:#8DCE55;" d="M330.142,457.104c0,0,16.664-200.839,124.409-297.128c5.435-4.857,13.662,1.102,10.696,7.76
	c-19.47,43.714-53.613,141.461-53.613,289.368H330.142z"/>
<path style="fill:#6DC82A;" d="M465.247,167.736c2.965-6.659-5.262-12.617-10.696-7.76
	c-107.746,96.289-124.409,297.128-124.409,297.128h23.498c0,0,14.936-179.985,107.938-280.873
	C462.846,173.206,464.074,170.37,465.247,167.736z"/>
<path style="fill:#8DCE55;" d="M414.722,457.104c0,0,11.065-133.364,82.612-197.303c3.609-3.225,9.072,0.732,7.103,5.154
	c-12.928,29.028-35.6,93.934-35.6,192.15H414.722z"/>
<path style="fill:#6DC82A;" d="M504.436,264.955c1.969-4.421-3.494-8.378-7.103-5.153c-71.547,63.939-82.612,197.303-82.612,197.303
	h20.002c0,0,9.026-108.696,63.427-176.874C500.389,274.364,502.521,269.255,504.436,264.955z"/>
<path style="fill:#8DCE55;" d="M289.61,457.104c0,0-22.421-270.232-167.395-399.792c-7.313-6.536-18.383,1.482-14.392,10.442
	c26.197,58.818,72.138,190.338,72.138,389.351h109.65V457.104z"/>
<path style="fill:#6DC82A;" d="M128.295,62.902c-2.003-1.889-4.027-3.755-6.08-5.59c-7.313-6.536-18.383,1.482-14.392,10.441
	c26.197,58.819,72.138,190.338,72.138,389.351h21.252c0-199.012-45.941-330.532-72.138-389.351
	C128.326,66.073,128.108,64.426,128.295,62.902z"/>
<path style="fill:#8DCE55;" d="M182.546,457.104c0,0-16.664-200.839-124.409-297.128c-5.435-4.857-13.662,1.102-10.696,7.76
	c19.47,43.714,53.613,141.461,53.613,289.368H182.546z"/>
<path style="fill:#6DC82A;" d="M58.137,159.976c-5.435-4.857-13.662,1.102-10.696,7.76c19.47,43.714,53.613,141.461,53.613,289.368
	h21.002c0-143.888-32.311-240.296-51.992-285.677C66.217,167.471,62.244,163.647,58.137,159.976z"/>
<path style="fill:#8DCE55;" d="M97.966,457.104c0,0-11.065-133.364-82.612-197.303c-3.609-3.225-9.072,0.732-7.103,5.154
	c12.928,29.028,35.6,93.934,35.6,192.15H97.966z"/>
<path style="fill:#6DC82A;" d="M15.355,259.801c-3.609-3.225-9.072,0.732-7.103,5.154c12.928,29.028,35.6,93.934,35.6,192.15h20.252
	c0-83.144-16.247-142.409-29.077-176.253C29.037,273.279,22.502,266.19,15.355,259.801z"/>
<path d="M507.065,253.46c-4.613-3.366-10.813-3.059-15.073,0.749c-30.433,27.197-53.926,69.067-69.854,124.45
	c8.911-102.265,33.636-171.99,49.617-207.87c2.757-6.191,0.861-13.304-4.611-17.297c-5.491-4.006-12.866-3.639-17.936,0.893
	c-25.26,22.574-47.655,52.586-66.561,89.199c-14.434,27.956-26.883,59.829-37.042,94.783c5.299-53.628,14.26-105.014,26.839-153.645
	c1.037-4.01-1.373-8.103-5.384-9.14c-4.01-1.042-8.103,1.372-9.14,5.384c-33.333,128.871-30.445,228.487-34.907,268.638h-26.964
	c-4.985-45.742-16.226-103.615-32.217-157.257c31.03-102.122,75.197-179.309,131.294-229.441c0.293-0.263,0.98-0.88,2.04-0.105
	c1.02,0.743,0.671,1.526,0.503,1.902c-10.88,24.427-20.915,51.664-29.828,80.954c-1.206,3.963,1.029,8.154,4.992,9.359
	c3.964,1.206,8.154-1.029,9.36-4.991c8.733-28.701,18.551-55.354,29.18-79.219c3.259-7.318,1.102-15.407-5.367-20.126
	c-6.492-4.733-14.881-4.317-20.877,1.041c-32.122,28.706-60.821,66.48-85.3,112.271c-16.536,30.932-31.231,65.674-43.823,103.516
	c-11.647-35.005-25.098-67.351-40.155-96.51c-25.292-48.983-55.23-89.113-88.983-119.277c-5.996-5.36-14.385-5.777-20.877-1.04
	c-6.469,4.719-8.626,12.807-5.366,20.126c20.892,46.908,52.859,136.651,65.777,267.597c-10.16-34.968-22.612-66.854-37.052-94.819
	c-18.906-36.613-41.3-66.624-66.561-89.2c-5.07-4.529-12.445-4.896-17.936-0.892c-5.473,3.992-7.369,11.105-4.611,17.297
	c15.981,35.88,40.706,105.604,49.617,207.87C73.934,323.276,50.44,281.406,20.008,254.21c-4.26-3.807-10.458-4.116-15.072-0.751
	c-4.604,3.357-6.2,9.34-3.88,14.548c12.71,28.538,33.8,89.547,34.899,181.597H22.012c-4.142,0-7.501,3.357-7.501,7.501
	s3.358,7.501,7.501,7.501c4.455,0,442,0,446.479,0h22.322c4.142,0,7.501-3.357,7.501-7.501s-3.358-7.501-7.501-7.501h-14.77
	c0.175-14.334,0.846-28.583,2.011-42.456c0.347-4.128-2.718-7.756-6.847-8.103c-4.142-0.336-7.756,2.719-8.103,6.847
	c-1.2,14.287-1.894,28.959-2.07,43.712h-38.272c3.516-27.652,18.607-119.346,68.708-173.822
	c-8.465,21.804-18.077,53.31-24.244,94.626c-0.611,4.097,2.214,7.915,6.312,8.526c4.1,0.613,7.915-2.214,8.526-6.312
	c7.38-49.445,19.779-84.183,28.88-104.616C513.263,262.8,511.668,256.817,507.065,253.46z M114.833,62.799
	c1.057-0.772,1.745-0.158,2.039,0.105c97.504,87.138,149.508,256.629,164.086,386.699h-91.972
	c-0.439-3.952-1.114-9.493-2.093-16.341c-3.437-185.964-46.478-309.993-72.562-368.561
	C114.162,64.326,113.814,63.543,114.833,62.799z M50.965,449.604c-0.957-82.012-17.461-140.373-30.44-173.822
	c50.053,54.434,65.175,146.163,68.706,173.822H50.965z M55.367,167.905C108,216.483,137.539,291.558,153.105,346.41
	c10.18,35.872,15.854,67.933,18.807,88.331c0.086,4.911,0.147,9.863,0.176,14.862h-63.907
	C107.088,308.748,75.412,213.946,55.367,167.905z M339.91,449.604c0.029-4.968,0.09-9.92,0.176-14.858
	c13.25-91.512,48.577-204.101,116.545-266.838c-20.037,46.02-51.719,140.832-52.814,281.697H339.91z"/>















</svg>
