<svg  enable-background="new 0 0 511.68 511.68" height="512" viewBox="0 0 511.68 511.68" width="512" xmlns="http://www.w3.org/2000/svg"><g><g><path d="m371.074 206.099c-17.049 0-30.87 13.821-30.87 30.87v-37c0-17.049-13.821-30.87-30.87-30.87-17.049 0-30.87 13.821-30.87 30.87v-161.599c0-17.049-13.821-30.87-30.87-30.87-17.049 0-30.87 13.821-30.87 30.87v161.596c-.001-17.048-13.822-30.867-30.87-30.867-17.049 0-30.87 13.821-30.87 30.87v6.203l-25.791 17.234c-12.157 8.124-19.457 21.78-19.457 36.402v56.422c0 47.707 21.29 92.925 58.062 123.319l8.366 6.915c1.513 1.25 2.389 3.111 2.389 5.073v52.643h192.52v-51.579c0-1.813.43-3.6 1.255-5.214l7.911-15.475c12.225-23.917 19.419-50.029 21.232-76.735l.472-31.962v-86.245c.001-17.05-13.82-30.871-30.869-30.871z" fill="#ffefe7"/><g ><path d="m365.614 236.907c0-12.518 7.415-23.253 18.122-28.098-4.227-1.913-8.921-3.025-13.908-2.747-17.264.961-29.629 14.296-29.629 31.455v24.383c0 .794.643 1.437 1.437 1.437 13.242 0 23.977-10.735 23.977-23.977v-2.453z" fill="#ffe0d1"/></g><g><g><g><path d="m204.127 496.333v-66.959c0-2.055-.988-3.995-2.702-5.299l-9.502-7.208c-41.742-31.712-65.911-78.872-65.911-128.641v-58.854c0-1.141.091-2.647.182-3.774-10.29 7.575-16.456 21.176-16.456 34.543v56.42c0 47.71 21.29 92.92 58.06 123.32l8.37 6.91c1.51 1.25 2.38 3.11 2.38 5.08v42.141c0 5.798 4.701 10.499 10.499 10.499h19.088c-2.453-2.007-4.008-4.922-4.008-8.178z" fill="#ffe0d1"/></g><path d="m247.59 7.83c-8.52 0-16.24 3.46-21.83 9.04-5.58 5.59-9.04 13.3-9.04 21.83v198.03c14.019 0 25.384-11.365 25.384-25.384v-172.646c0-8.53 3.46-16.24 9.04-21.83 2.623-2.618 5.643-4.741 9.066-6.287-3.873-1.75-8.093-2.753-12.62-2.753z" fill="#ffe0d1"/></g><g><path d="m191.305 178.138c2.378-2.374 5.14-4.367 8.186-5.871-4.115-2.031-8.741-3.169-13.641-3.169-8.52 0-16.24 3.46-21.83 9.04-5.58 5.59-9.04 13.3-9.04 21.83v68.99c15.069 0 27.285-12.216 27.285-27.285v-41.705c0-8.53 3.46-16.24 9.04-21.83z" fill="#ffe0d1"/></g><g ><path d="m304.312 203.512c0-8.53 3.46-16.24 9.04-21.83 3.421-3.415 7.776-6.285 12.487-7.805-4.747-2.977-10.488-4.778-16.505-4.778-8.52 0-16.362 3.586-21.952 9.166-5.58 5.59-8.922 13.503-8.922 22.033v46.22c14.278 0 25.852-11.575 25.852-25.852z" fill="#ffe0d1"/></g></g></g><g><path d="m216.724 123.935c-4.142 0-7.5 3.358-7.5 7.5v38.133c-6.477-4.991-14.58-7.969-23.37-7.969-21.157 0-38.37 17.213-38.37 38.37v2.194l-22.458 15.007c-14.271 9.535-22.79 25.475-22.79 42.638v56.422c0 24.728 5.621 49.61 16.254 71.958 1.285 2.701 3.974 4.28 6.778 4.28 1.08 0 2.177-.234 3.217-.729 3.741-1.78 5.33-6.254 3.55-9.995-9.682-20.348-14.799-43.002-14.799-65.514v-56.422c0-12.143 6.028-23.42 16.124-30.166l14.124-9.438v35.758c0 4.142 3.358 7.5 7.5 7.5s7.5-3.358 7.5-7.5v-55.993c0-12.886 10.484-23.37 23.37-23.37s23.37 10.484 23.37 23.37v46.851c0 4.142 3.358 7.5 7.5 7.5s7.5-3.358 7.5-7.5v-115.385c0-4.143-3.358-7.5-7.5-7.5z"/><path d="m401.98 347.693c-4.137-.286-7.71 2.842-7.99 6.975-1.759 25.913-8.632 50.753-20.428 73.83l-7.91 15.476c-1.359 2.658-2.077 5.641-2.077 8.627v51.58c0 4.142 3.357 7.5 7.5 7.5s7.5-3.358 7.5-7.5v-51.58c0-.624.149-1.246.433-1.8l7.91-15.476c12.727-24.895 20.141-51.69 22.037-79.641.281-4.133-2.842-7.71-6.975-7.991z"/><path d="m371.074 198.599c-8.79 0-16.893 2.978-23.37 7.969v-6.599c0-21.157-17.213-38.37-38.37-38.37-8.79 0-16.893 2.978-23.37 7.969v-131.198c0-21.157-17.213-38.37-38.37-38.37s-38.37 17.213-38.37 38.37v61.102c0 4.142 3.358 7.5 7.5 7.5s7.5-3.358 7.5-7.5v-61.102c0-12.886 10.484-23.37 23.37-23.37s23.37 10.484 23.37 23.37v208.449c0 4.142 3.357 7.5 7.5 7.5s7.5-3.358 7.5-7.5v-46.851c0-12.886 10.483-23.37 23.37-23.37s23.37 10.484 23.37 23.37v46.851c0 4.142 3.357 7.5 7.5 7.5s7.5-3.358 7.5-7.5v-9.851c0-12.886 10.483-23.37 23.37-23.37 12.886 0 23.369 10.484 23.369 23.37v86.245c0 4.142 3.357 7.5 7.5 7.5s7.5-3.358 7.5-7.5v-86.245c.001-21.156-17.211-38.369-38.369-38.369z"/><path d="m180.944 440.683-8.366-6.915c-9.195-7.6-17.514-16.317-24.724-25.91-2.489-3.311-7.19-3.977-10.501-1.488s-3.978 7.191-1.489 10.501c7.918 10.534 17.056 20.108 27.158 28.458l8.033 6.64v52.211c0 4.142 3.358 7.5 7.5 7.5s7.5-3.358 7.5-7.5v-52.643c-.001-4.214-1.864-8.17-5.111-10.854z"/></g></g></svg>