<?xml version="1.0" encoding="iso-8859-1"?>
<!-- Generator: Adobe Illustrator 19.0.0, SVG Export Plug-In . SVG Version: 6.00 Build 0)  -->
<svg version="1.1"  xmlns="http://www.w3.org/2000/svg" xmlns:xlink="http://www.w3.org/1999/xlink" x="0px" y="0px"
	 viewBox="0 0 512 512" style="enable-background:new 0 0 512 512;" xml:space="preserve">
<path style="fill:#F9C526;" d="M468.032,8.057H43.968c-19.832,0-35.911,16.078-35.911,35.911v424.064
	c0,19.833,16.079,35.911,35.911,35.911h424.064c19.834,0,35.911-16.078,35.911-35.911V43.968
	C503.943,24.135,487.867,8.057,468.032,8.057z"/>
<g style="opacity:0.3;">
	<path style="fill:#145587;" d="M433.548,458.926H381.23c-5.405,0-9.86-4.276-10.029-9.677
		c-5.025-159.369-133.745-288.086-293.115-293.113c-5.4-0.17-9.677-4.626-9.677-10.028V93.789c0-5.669,4.691-10.193,10.359-10.039
		c198.74,5.412,359.407,166.078,364.818,364.817C443.742,454.234,439.218,458.926,433.548,458.926z"/>
	<path style="fill:#145587;" d="M306.231,458.926h-52.354c-5.347,0-9.732-4.192-10.019-9.532
		c-4.799-89.312-76.605-161.116-165.916-165.914c-5.34-0.287-9.532-4.672-9.532-10.019v-52.355c0-5.711,4.761-10.276,10.468-10.04
		c128.483,5.358,232.034,108.909,237.393,237.393C316.507,454.166,311.942,458.926,306.231,458.926z"/>
	<circle style="fill:#145587;" cx="116.902" cy="410.436" r="48.493"/>
</g>
<g>
	<path style="fill:#FFFFFF;" d="M433.548,443.59H381.23c-5.405,0-9.86-4.276-10.029-9.677
		c-5.025-159.37-133.745-288.087-293.115-293.113c-5.4-0.171-9.677-4.627-9.677-10.029V78.452c0-5.67,4.691-10.193,10.359-10.039
		c198.74,5.413,359.407,166.078,364.818,364.816C443.742,438.899,439.218,443.59,433.548,443.59z"/>
	<path style="fill:#FFFFFF;" d="M306.231,443.59h-52.354c-5.347,0-9.732-4.194-10.019-9.532
		c-4.799-89.312-76.605-161.118-165.916-165.914c-5.34-0.288-9.532-4.673-9.532-10.019v-52.355c0-5.711,4.761-10.278,10.468-10.039
		c128.483,5.358,232.034,108.908,237.393,237.391C316.507,438.829,311.942,443.59,306.231,443.59z"/>
	<circle style="fill:#FFFFFF;" cx="116.902" cy="395.096" r="48.493"/>
</g>
<path d="M78.987,60.36c-10.257-0.259-18.635,7.945-18.635,18.093v52.319c0,9.829,7.677,17.772,17.481,18.082
	c155.1,4.891,280.425,130.216,285.316,285.314c0.308,9.802,8.251,17.481,18.082,17.481h52.318c4.922,0,9.523-1.943,12.958-5.472
	c3.446-3.542,5.269-8.217,5.134-13.165c-2.673-98.188-42.544-190.661-112.268-260.383C269.65,102.904,177.176,63.034,78.987,60.36z
	 M434.957,434.938c-0.264,0.272-0.723,0.595-1.408,0.595H381.23c-1.057,0-1.944-0.84-1.977-1.874
	c-5.158-163.578-137.335-295.755-300.912-300.911c-1.033-0.032-1.875-0.919-1.875-1.977v-52.32c0-1.094,0.906-1.985,2.081-1.985
	c0,0,0.001,0,0.002,0c94.051,2.562,182.634,40.758,249.43,107.554c66.797,66.796,104.993,155.378,107.554,249.429
	C435.553,434.17,435.23,434.658,434.957,434.938z M468.032,0H43.968C19.724,0,0,19.724,0,43.968v424.064
	C0,492.275,19.724,512,43.968,512h424.064C492.275,512,512,492.276,512,468.032V43.968C512,19.724,492.275,0,468.032,0z
	 M495.886,468.032c0,15.359-12.495,27.854-27.854,27.854H43.968c-15.359,0-27.854-12.495-27.854-27.854V43.968
	c0-15.359,12.495-27.854,27.854-27.854h424.064c15.359,0,27.854,12.495,27.854,27.854L495.886,468.032L495.886,468.032z
	 M116.902,338.547c-31.181,0-56.549,25.368-56.549,56.551c0,31.182,25.367,56.551,56.549,56.551s56.551-25.368,56.551-56.551
	S148.085,338.547,116.902,338.547z M116.902,435.533c-22.295,0-40.435-18.14-40.435-40.437s18.139-40.437,40.435-40.437
	c22.297,0,40.437,18.14,40.437,40.437S139.199,435.533,116.902,435.533z M79.215,187.682c-0.257-0.012-0.512-0.017-0.766-0.017
	c-9.979,0-18.097,8.123-18.097,18.106v52.355c0,9.612,7.536,17.546,17.157,18.064c41.207,2.213,80.055,19.584,109.386,48.916
	c29.331,29.331,46.704,68.178,48.917,109.386c0.518,9.62,8.452,17.156,18.064,17.156h52.354c4.905,0,9.666-2.031,13.064-5.571
	c3.397-3.543,5.228-8.386,5.025-13.289c-2.676-64.165-29.267-124.62-74.878-170.229C203.832,216.949,143.378,190.358,79.215,187.682
	z M307.666,434.92c-0.269,0.28-0.736,0.613-1.435,0.613h-52.354c-1.05,0-1.915-0.838-1.973-1.907
	c-2.428-45.183-21.468-87.769-53.614-119.916c-32.146-32.145-74.733-51.186-119.914-53.612c-1.07-0.058-1.908-0.924-1.908-1.973
	v-52.355c0-1.097,0.887-1.99,2.071-1.99h0.004c60.115,2.507,116.764,27.428,159.507,70.171
	c42.744,42.743,67.665,99.391,70.172,159.505C308.249,434.158,307.936,434.64,307.666,434.92z"/>















</svg>
