<svg class="icon" viewBox="0 0 1024 1024" version="1.1" xmlns="http://www.w3.org/2000/svg" width="200" height="200"><path d="M710.4 430.08 512 641.28 313.6 430.08c-10.24-10.24-25.6-10.24-35.84-1.28-10.24 10.24-10.24 25.6-1.28 35.84l217.6 230.4c5.12 5.12 11.52 7.68 19.2 7.68 7.68 0 14.08-2.56 19.2-7.68l217.6-230.4c10.24-10.24 8.96-26.88-1.28-35.84C737.28 419.84 720.64 419.84 710.4 430.08z"></path><path d="M512 102.4c-108.8 0-212.48 42.24-289.28 120.32C144.64 299.52 102.4 403.2 102.4 512s42.24 212.48 120.32 289.28c76.8 76.8 180.48 120.32 289.28 120.32s212.48-42.24 289.28-120.32c76.8-76.8 120.32-180.48 120.32-289.28s-42.24-212.48-120.32-289.28C724.48 144.64 620.8 102.4 512 102.4zM765.44 765.44C697.6 833.28 608 870.4 512 870.4c-96 0-185.6-37.12-253.44-104.96C190.72 697.6 153.6 608 153.6 512s37.12-185.6 104.96-253.44C326.4 190.72 416 153.6 512 153.6c96 0 185.6 37.12 253.44 104.96C833.28 326.4 870.4 416 870.4 512S833.28 697.6 765.44 765.44z"></path></svg>