<?xml version="1.0" encoding="iso-8859-1"?>
<svg version="1.1"  xmlns="http://www.w3.org/2000/svg" xmlns:xlink="http://www.w3.org/1999/xlink" x="0px"
     y="0px"
     viewBox="0 0 512.293 512.293" style="enable-background:new 0 0 512.293 512.293;" xml:space="preserve">
<path style="fill:#BBDEFB;" d="M402.148,149.606C384.338,63.054,299.735,7.328,213.183,25.138
	C139.07,40.389,85.774,105.472,85.434,181.136c0,3.605,0.149,7.296,0.469,11.2C33.178,197.917-5.04,245.183,0.541,297.908
	c5.173,48.87,46.416,85.943,95.559,85.895h11.2c-0.256-3.541-0.533-7.061-0.533-10.667c0-76.583,62.083-138.667,138.667-138.667
	S384.1,296.553,384.1,373.136c0,3.605-0.277,7.125-0.533,10.667h11.2c64.73,0.177,117.348-52.154,117.525-116.885
	C512.462,204.807,464.148,153.348,402.148,149.606L402.148,149.606z"/>
    <circle style="fill:#4CAF50;" cx="245.434" cy="373.136" r="117.333"/>
    <g>
	<path style="fill:#FAFAFA;" d="M245.434,447.803c-5.891,0-10.667-4.776-10.667-10.667v-128c0-5.891,4.776-10.667,10.667-10.667
		s10.667,4.776,10.667,10.667v128C256.1,443.027,251.325,447.803,245.434,447.803z"/>
        <path style="fill:#FAFAFA;" d="M245.434,447.803c-2.831,0.005-5.548-1.115-7.552-3.115l-42.667-42.667
		c-4.093-4.237-3.975-10.99,0.262-15.083c4.134-3.993,10.687-3.993,14.821,0l35.136,35.115l35.115-35.115
		c4.237-4.093,10.99-3.975,15.083,0.262c3.993,4.134,3.993,10.687,0,14.821l-42.667,42.667
		C250.965,446.682,248.257,447.802,245.434,447.803z"/>
</g>
    <path d="M394.767,383.803c-5.891,0-10.667-4.776-10.667-10.667c0-5.891,4.776-10.667,10.667-10.667c53.019,0,96-42.981,96-96
	s-42.981-96-96-96c-5.637,0.093-10.64-3.592-12.224-9.003C371.112,85.741,300.457,33.621,224.731,45.052
	c-67.436,10.18-117.458,67.886-117.964,136.084c0.054,6.694,0.596,13.375,1.621,19.989c0.432,3.082-0.503,6.198-2.56,8.533
	c-2.208,2.148-5.116,3.429-8.192,3.605c-0.469,0-1.792-0.128-2.261-0.213c-41.261,0.2-74.547,33.811-74.347,75.072
	c0.2,41.261,33.811,74.547,75.072,74.347c5.891,0,10.667,4.776,10.667,10.667c0,5.891-4.776,10.667-10.667,10.667
	c-53.019,0.051-96.041-42.888-96.093-95.907c-0.047-49.143,37.025-90.387,85.895-95.559c-0.32-3.904-0.469-7.595-0.469-11.2
	c0.408-88.365,72.373-159.667,160.738-159.259c75.657,0.35,140.728,53.645,155.977,127.75
	c64.601,4.094,113.652,59.782,109.558,124.384C507.795,335.727,456.607,383.786,394.767,383.803z"/>
    <path d="M245.434,490.47c-64.801,0-117.333-52.532-117.333-117.333s52.532-117.333,117.333-117.333s117.333,52.532,117.333,117.333
	C362.685,437.904,310.201,490.387,245.434,490.47z M245.434,277.136c-53.019,0-96,42.981-96,96s42.981,96,96,96s96-42.981,96-96
	S298.453,277.136,245.434,277.136z"/>















</svg>
