<svg id="Capa_1" enable-background="new 0 0 512 512" height="512" viewBox="0 0 512 512" width="512"
     xmlns="http://www.w3.org/2000/svg">
    <path d="m195 247.568h-84.241s-73.759 3.428-73.759 60h158z" fill="#7a9dae"/>
    <path d="m272 194.926v168.298s109.74-4.038 115.665 78.169c.224 3.105 3.806 4.741 6.318 2.908 19.765-14.425 81.017-67.052 81.017-165.23s-61.252-150.805-81.017-165.231c-2.512-1.834-6.094-.197-6.318 2.908-5.925 82.208-115.665 78.178-115.665 78.178z"
          fill="#7a9dae"/>
    <path d="m423.053 279.071c0-59.631-22.596-102.448-44.769-130.118 5.07-8.908 8.463-19.527 9.38-32.204.225-3.106 3.805-4.744 6.318-2.91 19.763 14.425 81.018 67.052 81.018 165.232s-61.255 150.807-81.018 165.232c-2.513 1.834-6.093.196-6.317-2.91-.917-12.677-4.31-23.296-9.38-32.203 22.172-27.671 44.768-70.488 44.768-130.119z"
          fill="#6192ab"/>
    <path d="m232 144.403h40v360.097h-40z" fill="#b5672d"/>
    <path d="m281.61 66.904-9.61 47.596h-40l-9.61-47.596c-1.529-7.572.037-15.442 4.349-21.852l21.156-35.366c1.961-2.915 6.25-2.915 8.211 0l21.156 35.366c4.311 6.41 5.877 14.28 4.348 21.852z"
          fill="#7a9dae"/>
    <path d="m277.261 45.052-21.156-35.366c-1.961-2.915-6.25-2.915-8.211 0l-10.894 18.213 10.261 17.154c4.312 6.41 9.855 15.541 8.326 23.113l-3.587 46.334h20l9.61-47.596c1.529-7.572-.037-15.442-4.349-21.852z"
          fill="#6192ab"/>
    <path d="m275.277 144.403h-46.554c-3.713 0-6.723-3.01-6.723-6.723v-16.554c0-3.713 3.01-6.723 6.723-6.723h46.554c3.713 0 6.723 3.01 6.723 6.723v16.554c0 3.713-3.01 6.723-6.723 6.723z"
          fill="#ffd740"/>
    <path d="m275.277 114.403h-30c3.713 0 6.723 3.01 6.723 6.723v16.554c0 3.713-3.01 6.723-6.723 6.723h30c3.713 0 6.723-3.01 6.723-6.723v-16.554c0-3.713-3.01-6.723-6.723-6.723z"
          fill="#ffc400"/>
    <path d="m232 324.451h-27c-5.523 0-10-4.477-10-10v-73.767c0-5.523 4.477-10 10-10h27z" fill="#4e829c"/>
    <path d="m317.327 297.434h-44.236v-39.733h44.236c10.972 0 19.867 8.895 19.867 19.867 0 10.972-8.895 19.866-19.867 19.866z"
          fill="#4e829c"/>
    <path d="m453.659 169.806c-2.09-3.575-6.685-4.779-10.26-2.689-3.576 2.09-4.78 6.684-2.689 10.26 17.776 30.409 26.79 64.625 26.79 101.695 0 87.606-50.823 137.728-73.024 155.418-1.233-8.833-3.677-17.015-7.295-24.503 20.473-26.836 43.372-70.388 43.372-130.915 0-60.525-22.899-104.079-43.372-130.915 3.618-7.488 6.062-15.67 7.295-24.504 7.266 5.787 17.866 15.247 28.652 28.436 2.622 3.208 7.349 3.68 10.554 1.058 3.206-2.622 3.68-7.348 1.058-10.554-14.635-17.894-29.046-29.49-36.336-34.812-7.264-5.298-17.573-.534-18.219 8.429-2.366 32.83-23.078 52.76-54.572 63.218-18.221 6.051-36.395 7.573-46.112 7.928v-36.093c5.787-1.803 10-7.21 10-13.583v-16.554c0-5.829-3.524-10.85-8.553-13.044l8.015-39.693c1.899-9.402-.055-19.357-5.36-27.347l-21.06-35.206c-.068-.113-.14-.226-.214-.336-2.317-3.443-6.179-5.5-10.329-5.5s-8.012 2.057-10.328 5.5c-.074.11-.146.223-.214.336l-21.06 35.206c-5.306 7.989-7.26 17.944-5.36 27.347l8.015 39.693c-5.029 2.195-8.553 7.216-8.553 13.044v16.554c0 6.373 4.213 11.78 10 13.583v71.922h-19.5c-9.443 0-17.163 7.518-17.489 16.883h-76.752c-.116 0-.232.003-.349.008-.809.038-20.025 1.017-39.493 9.388-27.096 11.649-41.417 31.741-41.417 58.103 0 4.143 3.357 7.5 7.5 7.5h27.077c4.143 0 7.5-3.357 7.5-7.5s-3.357-7.5-7.5-7.5h-19.041c2.413-16.313 12.969-28.63 31.47-36.679 16.174-7.037 32.771-8.218 34.461-8.321h76.533v15h-71.399c-4.143 0-7.5 3.357-7.5 7.5s3.357 7.5 7.5 7.5h71.399v15h-91.423c-4.143 0-7.5 3.357-7.5 7.5s3.357 7.5 7.5 7.5h91.434c.326 9.365 8.046 16.884 17.489 16.884h19.5v20.126c0 4.143 3.357 7.5 7.5 7.5s7.5-3.357 7.5-7.5v-200.175h25v345.098h-25v-112.923c0-4.143-3.357-7.5-7.5-7.5s-7.5 3.357-7.5 7.5v120.423c0 4.143 3.357 7.5 7.5 7.5h40c4.143 0 7.5-3.357 7.5-7.5v-133.702c9.719.355 27.889 1.873 46.113 7.923 31.555 10.475 52.209 30.435 54.571 63.212.65 9.013 11.01 13.686 18.221 8.427 19.728-14.398 84.095-69.305 84.095-171.288 0-39.767-9.703-76.529-28.841-109.266zm-220.697-120.568c.073-.109.145-.222.213-.335l18.825-31.47 18.825 31.471c.068.113.14.226.213.335 3.172 4.715 4.346 10.612 3.221 16.182l-8.376 41.482h-27.766l-8.376-41.482c-1.125-5.57.049-11.468 3.221-16.183zm-27.962 267.713c-1.379 0-2.5-1.121-2.5-2.5v-73.767c0-1.379 1.121-2.5 2.5-2.5h19.5v78.767zm24.5-180.049v-15c1.399.221 44.896 0 45 0v15zm100.453 227.454c-20.265-6.664-39.956-8.252-50.453-8.587v-50.835h37.827c15.09 0 27.366-12.277 27.366-27.367s-12.276-27.366-27.366-27.366h-37.827v-47.82c10.498-.336 30.19-1.925 50.454-8.591 21.314-7.011 37.671-17.801 48.704-31.936 18.067 25.193 36.895 64.178 36.895 117.217 0 53.041-18.828 92.024-36.896 117.217-11.033-14.133-27.39-24.922-48.704-31.932zm-49.362-74.421v-24.733h36.736c6.818 0 12.366 5.548 12.366 12.366 0 6.819-5.548 12.367-12.366 12.367z"/>
</svg>